<svg viewBox="0 0 240 77" xmlns="http://www.w3.org/2000/svg"><g fill="none" fill-rule="evenodd"><text font-family="Arapey-Extralight, Arapey" font-size="46" font-weight="300" fill="#000" transform="translate(-33)"><tspan x="30.396" y="76">5 Star Hotels</tspan></text><path d="M40.164 27.75l-10.677 5.717 2.04-12.109-8.638-8.575 11.937-1.766L40.164 0l5.338 11.017 11.937 1.766-8.637 8.575 2.039 12.109zm36.328 0l-10.676 5.717 2.039-12.109-8.638-8.575 11.937-1.766L76.492 0l5.338 11.017 11.937 1.766-8.637 8.575 2.039 12.109zm36.328 0l-10.676 5.717 2.039-12.109-8.638-8.575 11.937-1.766L112.82 0l5.339 11.017 11.936 1.766-8.637 8.575 2.039 12.109zm37.782 0l-10.677 5.717 2.039-12.109-8.637-8.575 11.936-1.766L150.602 0l5.338 11.017 11.937 1.766-8.638 8.575 2.04 12.109zm39.234 0l-10.677 5.717 2.04-12.109-8.638-8.575 11.937-1.766L189.836 0l5.338 11.017 11.937 1.766-8.638 8.575 2.04 12.109z" fill="#B30C00"/></g></svg>