<svg viewBox="0 0 434 434" xmlns="http://www.w3.org/2000/svg"><g fill="none" fill-rule="evenodd"><path d="M252.8 349.76c34.04 0 56.12-15.64 56.12-40.48 0-5.06-.92-12.42-1.84-17.48l-17.48 2.3c.92 4.14.92 7.36.92 10.58 0 8.28-4.14 14.26-9.66 14.26-5.98 0-9.2-5.06-9.2-14.26v-75.44c0-59.34-30.36-89.24-91.54-89.24-52.44 0-86.94 21.62-86.94 55.2 0 18.4 10.58 28.06 29.9 28.06 12.88 0 24.38-4.6 36.34-14.26-2.76-5.06-4.14-11.96-4.14-19.78 0-17.02 7.36-26.68 20.24-26.68 16.56 0 21.62 14.72 21.62 70.84-6.44-.46-13.34-.46-19.78-.46-63.02 0-99.36 24.84-99.36 69 0 28.98 21.62 47.84 54.28 47.84s57.96-20.7 69-55.66h2.3c0 35.88 17.48 55.66 49.22 55.66zm-88.78-36.8c-11.5 0-17.94-7.36-17.94-20.7 0-22.08 18.86-35.88 50.6-37.26-2.3 39.1-13.34 57.96-32.66 57.96z" fill="#595959" fill-rule="nonzero"/><path d="M177.36 232.92c1.19 0 2.395 0 3.61.003-11.83 17.071-32.025 28.317-54.95 28.317-9.924 0-19.336-2.107-27.78-5.882 16.86-14.635 43.8-22.438 79.12-22.438zm-20.546-91.36c10.062 5.117 18.585 12.663 24.723 21.826-1.813-.585-3.813-.846-6.017-.846-12.88 0-20.24 9.66-20.24 26.68 0 7.82 1.38 14.72 4.14 19.78-11.96 9.66-23.46 14.26-36.34 14.26-19.32 0-29.9-9.66-29.9-28.06 0-28.207 24.343-47.975 63.214-53.58z" fill="#000" fill-rule="nonzero"/><ellipse style="mix-blend-mode:multiply" cx="66" cy="63.5" rx="66" ry="63.5" transform="translate(60.02 134.24)" fill="#E7E7E7" fill-opacity=".9"/><path d="M85.184 85.432c2.128 0 3.552-1.184 3.552-2.992 0-1.136-.672-2.064-1.984-2.688l-1.76-.832c-1.056-.528-1.424-1.008-1.424-1.728 0-.848.624-1.424 1.568-1.424 1.184 0 1.984.88 2.112 2.288h.832v-2.992h-.624l-.016.272c-.016.224-.096.336-.256.336-.384 0-.848-.704-2.32-.704-2.096 0-3.328 1.248-3.328 2.912 0 1.2.672 2.112 1.888 2.704l1.744.848c.944.432 1.552.912 1.552 1.712 0 .768-.512 1.488-1.824 1.488-1.216 0-2.448-.72-2.608-2.288h-.832v2.896h.624l.016-.224c.016-.24.112-.336.272-.336.432 0 1.184.752 2.816.752zm8.448 0c2.16 0 3.744-1.328 3.744-3.648 0-2.32-1.584-3.648-3.744-3.648-2.192 0-3.744 1.328-3.744 3.648 0 2.32 1.568 3.648 3.744 3.648zm0-.704c-.816 0-1.392-1.056-1.392-2.944s.576-2.944 1.392-2.944c.8 0 1.392 1.056 1.392 2.944s-.592 2.944-1.392 2.944zm9.28.512v-.512h-1.04c-.128 0-.256-.096-.256-.192V78.84h1.6v-.512h-1.6V76.44c0-.672.224-1.04.624-1.04.32 0 .544.256.544.64 0 .368-.08.704-.272 1.088.24.224.656.368 1.056.368.576 0 .928-.4.928-1.088 0-1.088-.752-1.728-2.016-1.728-1.84 0-2.912 1.216-3.12 3.648h-.896v.512h.656c.128 0 .224.096.224.224v5.44a.219.219 0 01-.224.224h-.656v.512h4.448zm3.488.192c1.024 0 1.664-.528 1.664-1.376a3.92 3.92 0 00-.064-.608l-.528.08c.016.128.032.24.032.368 0 .32-.16.576-.384.576s-.352-.208-.352-.576V78.84h1.472v-.512h-1.472v-1.664h-1.104c-.096 1.056-.688 1.664-1.584 1.664h-.48v.512h.688c.112 0 .224.096.224.224v4.176c0 1.424.672 2.192 1.888 2.192zm-40.112 18c1.024 0 1.664-.528 1.664-1.376a3.92 3.92 0 00-.064-.608l-.528.08c.016.128.032.24.032.368 0 .32-.16.576-.384.576s-.352-.208-.352-.576V96.84h1.472v-.512h-1.472v-1.664h-1.104c-.096 1.056-.688 1.664-1.584 1.664h-.48v.512h.688c.112 0 .224.096.224.224v4.176c0 1.424.672 2.192 1.888 2.192zm6.144 0c1.664 0 2.784-.768 3.264-2.192l-.48-.16c-.336 1.024-1.104 1.616-2.064 1.616-1.232 0-1.936-.992-2-2.8h4.464a8.11 8.11 0 00.048-.8c0-1.888-1.088-2.96-3.024-2.96-2.288 0-3.84 1.488-3.84 3.664 0 2.16 1.456 3.632 3.632 3.632zm1.088-4.08h-2.368c.064-1.52.592-2.512 1.424-2.512.624 0 .992.608.992 1.648 0 .24-.016.544-.048.864zm7.824 3.888v-.512h-1.04a.219.219 0 01-.224-.224V100.6c0-1.92.4-3.024 1.12-3.024.336 0 .576.24.576.736 0 .16-.048.432-.096.56.176.176.592.272.96.272.736 0 1.168-.48 1.168-1.376 0-.976-.592-1.632-1.52-1.632-1.024 0-1.776.656-2.128 1.872h-.08v-1.776c-.384.048-1.36.096-2.096.096h-1.072v.512h.656c.128 0 .224.096.224.224v5.456c0 .112-.096.208-.224.208h-.656v.512h4.432zm7.04 0v-.512h-.448c-.208 0-.288-.096-.288-.288v-2.272c0-1.648.512-2.672 1.376-2.672.56 0 .816.416.816 1.312v3.632c0 .192-.096.288-.304.288h-.416v.512h3.728v-.512h-.432c-.224 0-.304-.096-.304-.288v-2.272c0-1.648.512-2.672 1.376-2.672.56 0 .832.416.832 1.312v3.632c0 .192-.096.288-.304.288h-.448v.512h3.824v-.512h-.496c-.224 0-.304-.096-.304-.288v-3.984c0-1.472-.688-2.32-1.92-2.32-1.264 0-2.144.576-2.56 1.696h-.048c-.176-1.088-.832-1.696-1.872-1.696-1.216 0-2.08.576-2.464 1.696h-.08v-1.6c-.352.048-1.264.096-1.984.096H84.48v.512h.656c.128 0 .224.096.224.224v5.376c0 .192-.08.288-.288.288h-.592v.512h3.904zm12.032-7.952c.736 0 1.312-.576 1.312-1.312 0-.736-.576-1.312-1.312-1.312-.736 0-1.312.576-1.312 1.312 0 .736.576 1.312 1.312 1.312zm2.048 7.952v-.512h-.608c-.208 0-.288-.096-.288-.304v-6.192c-.384.048-1.44.096-2.384.096H98.4v.512h.576c.224 0 .304.096.304.304v5.28c0 .208-.08.304-.304.304H98.4v.512h4.064zm4.976 0v-.512h-.496c-.208 0-.288-.096-.288-.304v-2.256c0-1.648.544-2.672 1.424-2.672.64 0 .928.416.928 1.312v3.616c0 .208-.096.304-.304.304h-.496v.512h3.968v-.512h-.608c-.208 0-.288-.096-.288-.304v-3.968c0-1.472-.752-2.32-2.08-2.32-1.216 0-2.08.592-2.464 1.696h-.08v-1.6c-.496.048-1.6.096-2.384.096h-.784v.512h.576c.224 0 .304.096.304.304v5.28c0 .208-.08.304-.304.304h-.576v.512h3.952zm11.6.192c1.088 0 1.792-.544 1.792-1.376 0-.16-.032-.4-.064-.576l-.512.08c.032.144.032.256.032.384 0 .336-.176.576-.416.576s-.368-.224-.368-.608v-2.784c0-1.984-.976-2.992-2.944-2.992-1.744 0-2.88.768-2.88 1.952 0 .608.336.912.928.912.4 0 .736-.112 1.104-.416-.096-.192-.144-.448-.144-.736 0-.656.304-1.024.848-1.024.656 0 .88.56.88 2.56v.064a12.852 12.852 0 00-.8-.032c-2.112 0-3.328.848-3.328 2.352 0 1.008.736 1.664 1.84 1.664 1.12 0 1.984-.72 2.368-1.968h.08c0 1.264.56 1.968 1.584 1.968zm-3.088-1.104c-.464 0-.736-.288-.736-.848 0-.896.752-1.392 2.064-1.392-.112 1.472-.576 2.24-1.328 2.24zm9.488.912v-.512h-.576c-.208 0-.304-.096-.304-.304v-9.536c-.354.044-1.282.089-2.165.095l-1.003.001v.512h.592c.208 0 .304.08.304.304v8.624c0 .208-.096.304-.304.304h-.592v.512h4.048z" fill="#156452" fill-rule="nonzero"/><path stroke="#156452" stroke-linecap="square" d="M97.52 113.74l32 76"/></g></svg>