<svg viewBox="0 0 434 434" xmlns="http://www.w3.org/2000/svg"><g fill="none" fill-rule="evenodd"><path d="M160.6 298.24v-16.56h-9.66c-6.44 0-9.2-3.22-9.2-9.2v-63.02c0-43.24 12.88-69.92 34.5-69.92 13.8 0 20.7 11.04 20.7 34.04v98.9c0 5.98-2.76 9.2-9.2 9.2h-9.66v16.56h113.16v-16.56h-9.2c-6.9 0-9.66-3.22-9.66-9.2v-63.02c0-43.24 13.34-69.92 34.5-69.92 14.26 0 20.7 11.04 20.7 34.04v98.9c0 5.98-2.76 9.2-9.2 9.2h-9.66v16.56H425.1v-16.56h-12.42c-6.44 0-9.2-3.22-9.2-9.2V161.62c0-42.32-21.16-67.62-57.04-67.62-36.8 0-62.56 15.64-74.52 46h-1.84c-5.98-28.98-24.84-46-54.28-46-35.88 0-60.26 15.64-71.76 46h-2.3V96.76c-10.93 1.366-39.893 2.732-62.788 2.76H41v16.56h18.4c3.68 0 6.44 2.76 6.44 6.44v149.96c0 5.98-2.76 9.2-9.2 9.2H41v16.56h119.6z" fill="#595959" fill-rule="nonzero"/><path d="M151.06 128.24c36.45 0 66 28.43 66 63.5 0 17.918-7.713 34.102-20.12 45.648V173.58c0-23-6.9-34.04-20.7-34.04-21.62 0-34.5 26.68-34.5 69.92v45.152c-32.038-4.357-56.68-30.846-56.68-62.872 0-32.026 24.642-58.515 56.68-62.872V140h2.3c1.59-4.196 3.425-8.111 5.503-11.743l.426-.008z" fill="#000" fill-rule="nonzero"/><ellipse style="mix-blend-mode:multiply" cx="66" cy="63.5" rx="66" ry="63.5" transform="translate(85.06 128.24)" fill="#E7E7E7" fill-opacity=".9"/><path d="M122.204 332.432c2.128 0 3.552-1.184 3.552-2.992 0-1.136-.672-2.064-1.984-2.688l-1.76-.832c-1.056-.528-1.424-1.008-1.424-1.728 0-.848.624-1.424 1.568-1.424 1.184 0 1.984.88 2.112 2.288h.832v-2.992h-.624l-.016.272c-.016.224-.096.336-.256.336-.384 0-.848-.704-2.32-.704-2.096 0-3.328 1.248-3.328 2.912 0 1.2.672 2.112 1.888 2.704l1.744.848c.944.432 1.552.912 1.552 1.712 0 .768-.512 1.488-1.824 1.488-1.216 0-2.448-.72-2.608-2.288h-.832v2.896h.624l.016-.224c.016-.24.112-.336.272-.336.432 0 1.184.752 2.816.752zm8.736-.192v-.512h-.448c-.208 0-.288-.096-.288-.288v-2.272c0-1.648.512-2.672 1.376-2.672.56 0 .816.416.816 1.312v3.632c0 .192-.096.288-.304.288h-.416v.512h3.728v-.512h-.432c-.224 0-.304-.096-.304-.288v-2.272c0-1.648.512-2.672 1.376-2.672.56 0 .832.416.832 1.312v3.632c0 .192-.096.288-.304.288h-.448v.512h3.824v-.512h-.496c-.224 0-.304-.096-.304-.288v-3.984c0-1.472-.688-2.32-1.92-2.32-1.264 0-2.144.576-2.56 1.696h-.048c-.176-1.088-.832-1.696-1.872-1.696-1.216 0-2.08.576-2.464 1.696h-.08v-1.6c-.352.048-1.264.096-1.984.096h-1.184v.512h.656c.128 0 .224.096.224.224v5.376c0 .192-.08.288-.288.288h-.592v.512h3.904zm13.632.192c2.16 0 3.744-1.328 3.744-3.648 0-2.32-1.584-3.648-3.744-3.648-2.192 0-3.744 1.328-3.744 3.648 0 2.32 1.568 3.648 3.744 3.648zm0-.704c-.816 0-1.392-1.056-1.392-2.944s.576-2.944 1.392-2.944c.8 0 1.392 1.056 1.392 2.944s-.592 2.944-1.392 2.944zm8.448.704c2.16 0 3.744-1.328 3.744-3.648 0-2.32-1.584-3.648-3.744-3.648-2.192 0-3.744 1.328-3.744 3.648 0 2.32 1.568 3.648 3.744 3.648zm0-.704c-.816 0-1.392-1.056-1.392-2.944s.576-2.944 1.392-2.944c.8 0 1.392 1.056 1.392 2.944s-.592 2.944-1.392 2.944zm7.328.704c1.024 0 1.664-.528 1.664-1.376a3.92 3.92 0 00-.064-.608l-.528.08c.016.128.032.24.032.368 0 .32-.16.576-.384.576s-.352-.208-.352-.576v-5.056h1.472v-.512h-1.472v-1.664h-1.104c-.096 1.056-.688 1.664-1.584 1.664h-.48v.512h.688c.112 0 .224.096.224.224v4.176c0 1.424.672 2.192 1.888 2.192zm6.4-.192v-.512h-.48c-.208 0-.304-.096-.304-.288v-2.272c0-1.648.528-2.672 1.424-2.672.64 0 .928.416.928 1.312v3.632c0 .192-.08.288-.288.288h-.48v.512h3.936v-.512h-.592c-.208 0-.304-.096-.304-.288v-3.984c0-1.472-.736-2.32-2.08-2.32-1.216 0-2.064.576-2.464 1.696h-.08v-5.056c-.384.048-1.328.096-2.032.096h-1.136v.512h.672c.128 0 .224.096.224.224v8.832c0 .192-.096.288-.304.288h-.592v.512h3.952zm11.808.192c1.024 0 1.664-.528 1.664-1.376a3.92 3.92 0 00-.064-.608l-.528.08c.016.128.032.24.032.368 0 .32-.16.576-.384.576s-.352-.208-.352-.576v-5.056h1.472v-.512h-1.472v-1.664h-1.104c-.096 1.056-.688 1.664-1.584 1.664h-.48v.512h.688c.112 0 .224.096.224.224v4.176c0 1.424.672 2.192 1.888 2.192zm7.072-.192v-.512h-1.04a.219.219 0 01-.224-.224V329.6c0-1.92.4-3.024 1.12-3.024.336 0 .576.24.576.736 0 .16-.048.432-.096.56.176.176.592.272.96.272.736 0 1.168-.48 1.168-1.376 0-.976-.592-1.632-1.52-1.632-1.024 0-1.776.656-2.128 1.872h-.08v-1.776c-.384.048-1.36.096-2.096.096h-1.072v.512h.656c.128 0 .224.096.224.224v5.456c0 .112-.096.208-.224.208h-.656v.512h4.432zm9.008.192c1.088 0 1.792-.544 1.792-1.376 0-.16-.032-.4-.064-.576l-.512.08c.032.144.032.256.032.384 0 .336-.176.576-.416.576s-.368-.224-.368-.608v-2.784c0-1.984-.976-2.992-2.944-2.992-1.744 0-2.88.768-2.88 1.952 0 .608.336.912.928.912.4 0 .736-.112 1.104-.416-.096-.192-.144-.448-.144-.736 0-.656.304-1.024.848-1.024.656 0 .88.56.88 2.56v.064a12.852 12.852 0 00-.8-.032c-2.112 0-3.328.848-3.328 2.352 0 1.008.736 1.664 1.84 1.664 1.12 0 1.984-.72 2.368-1.968h.08c0 1.264.56 1.968 1.584 1.968zm-3.088-1.104c-.464 0-.736-.288-.736-.848 0-.896.752-1.392 2.064-1.392-.112 1.472-.576 2.24-1.328 2.24zm9.584.912v-.512h-.496c-.208 0-.288-.096-.288-.304v-2.256c0-1.648.544-2.672 1.424-2.672.64 0 .928.416.928 1.312v3.616c0 .208-.096.304-.304.304h-.496v.512h3.968v-.512h-.608c-.208 0-.288-.096-.288-.304v-3.968c0-1.472-.752-2.32-2.08-2.32-1.216 0-2.08.592-2.464 1.696h-.08v-1.6c-.496.048-1.6.096-2.384.096h-.784v.512h.576c.224 0 .304.096.304.304v5.28c0 .208-.08.304-.304.304h-.576v.512h3.952zm8.272.192c1.888 0 3.104-.912 3.104-2.32 0-1.008-.464-1.664-1.424-2.016l-1.472-.544c-.48-.16-.752-.512-.752-.912 0-.544.384-.896 1.024-.896.656 0 1.04.368 1.104 1.024l.064.512h.864c0-.56.064-1.104.16-1.712-.976-.304-1.728-.432-2.432-.432-1.584 0-2.672.928-2.672 2.288 0 .992.416 1.6 1.296 1.904l1.52.576c.528.176.8.496.8.912 0 .64-.496 1.04-1.28 1.04-.752 0-1.216-.384-1.296-1.056l-.064-.608h-.88c0 .528-.048 1.04-.16 1.808.832.272 1.76.432 2.496.432zm6.272-8.144c.736 0 1.312-.576 1.312-1.312 0-.736-.576-1.312-1.312-1.312-.736 0-1.312.576-1.312 1.312 0 .736.576 1.312 1.312 1.312zm2.048 7.952v-.512h-.608c-.208 0-.288-.096-.288-.304v-6.192c-.354.044-1.282.089-2.165.095l-1.003.001v.512h.576c.224 0 .304.096.304.304v5.28c0 .208-.08.304-.304.304h-.576v.512h4.064zm3.52.192c1.024 0 1.664-.528 1.664-1.376a3.92 3.92 0 00-.064-.608l-.528.08c.016.128.032.24.032.368 0 .32-.16.576-.384.576s-.352-.208-.352-.576v-5.056h1.472v-.512h-1.472v-1.664h-1.104c-.096 1.056-.688 1.664-1.584 1.664h-.48v.512h.688c.112 0 .224.096.224.224v4.176c0 1.424.672 2.192 1.888 2.192zm4.656-8.144c.736 0 1.312-.576 1.312-1.312 0-.736-.576-1.312-1.312-1.312-.736 0-1.312.576-1.312 1.312 0 .736.576 1.312 1.312 1.312zm2.048 7.952v-.512h-.608c-.208 0-.288-.096-.288-.304v-6.192c-.354.044-1.282.089-2.165.095l-1.003.001v.512h.576c.224 0 .304.096.304.304v5.28c0 .208-.08.304-.304.304h-.576v.512h4.064zm4.64.192c2.16 0 3.744-1.328 3.744-3.648 0-2.32-1.584-3.648-3.744-3.648-2.192 0-3.744 1.328-3.744 3.648 0 2.32 1.568 3.648 3.744 3.648zm0-.704c-.816 0-1.392-1.056-1.392-2.944s.576-2.944 1.392-2.944c.8 0 1.392 1.056 1.392 2.944s-.592 2.944-1.392 2.944zm8.784.512v-.512h-.496c-.208 0-.288-.096-.288-.304v-2.256c0-1.648.544-2.672 1.424-2.672.64 0 .928.416.928 1.312v3.616c0 .208-.096.304-.304.304h-.496v.512h3.968v-.512h-.608c-.208 0-.288-.096-.288-.304v-3.968c0-1.472-.752-2.32-2.08-2.32-1.216 0-2.08.592-2.464 1.696h-.08v-1.6c-.496.048-1.6.096-2.384.096h-.784v.512h.576c.224 0 .304.096.304.304v5.28c0 .208-.08.304-.304.304h-.576v.512h3.952zm-131.224 18.192c2.048 0 3.392-1.456 3.392-3.648 0-2.24-1.04-3.648-2.672-3.648-1.04 0-1.824.56-2.256 1.632h-.096v-4.88c-.396.044-1.343.088-2.164.095l-1.004.001v.512h.592c.208 0 .288.08.288.304v9.568h.992l.496-.752c.64.544 1.472.816 2.432.816zm-.544-.688c-.368 0-.768-.096-1.088-.352v-1.808c-.016-1.92.592-3.312 1.456-3.312.72 0 1.216 1.072 1.216 2.624 0 1.792-.576 2.848-1.584 2.848zm8.528.688c1.664 0 2.784-.768 3.264-2.192l-.48-.16c-.336 1.024-1.104 1.616-2.064 1.616-1.232 0-1.936-.992-2-2.8h4.464a8.11 8.11 0 00.048-.8c0-1.888-1.088-2.96-3.024-2.96-2.288 0-3.84 1.488-3.84 3.664 0 2.16 1.456 3.632 3.632 3.632zm1.088-4.08h-2.368c.064-1.52.592-2.512 1.424-2.512.624 0 .992.608.992 1.648 0 .24-.016.544-.048.864zm5.888 4.08c1.024 0 1.664-.528 1.664-1.376a3.92 3.92 0 00-.064-.608l-.528.08c.016.128.032.24.032.368 0 .32-.16.576-.384.576s-.352-.208-.352-.576v-5.056h1.472v-.512h-1.472v-1.664h-1.104c-.096 1.056-.688 1.664-1.584 1.664h-.48v.512h.688c.112 0 .224.096.224.224v4.176c0 1.424.672 2.192 1.888 2.192zm6.24-.192l1.36-4.544 1.424 4.544h1.328l1.984-6.176c.032-.128.08-.224.208-.224h.448v-.512h-2.144v.512h.704l-1.136 3.744-1.344-4.256h-1.52l-1.264 4.272-1.232-3.76h.704v-.512h-3.616v.512h.48c.128 0 .176.096.208.224l2.08 6.176h1.328zm10.976.192c1.664 0 2.784-.768 3.264-2.192l-.48-.16c-.336 1.024-1.104 1.616-2.064 1.616-1.232 0-1.936-.992-2-2.8h4.464a8.11 8.11 0 00.048-.8c0-1.888-1.088-2.96-3.024-2.96-2.288 0-3.84 1.488-3.84 3.664 0 2.16 1.456 3.632 3.632 3.632zm1.088-4.08h-2.368c.064-1.52.592-2.512 1.424-2.512.624 0 .992.608.992 1.648 0 .24-.016.544-.048.864zm6.896 4.08c1.664 0 2.784-.768 3.264-2.192l-.48-.16c-.336 1.024-1.104 1.616-2.064 1.616-1.232 0-1.936-.992-2-2.8h4.464a8.11 8.11 0 00.048-.8c0-1.888-1.088-2.96-3.024-2.96-2.288 0-3.84 1.488-3.84 3.664 0 2.16 1.456 3.632 3.632 3.632zm1.088-4.08h-2.368c.064-1.52.592-2.512 1.424-2.512.624 0 .992.608.992 1.648 0 .24-.016.544-.048.864zm7.344 3.888v-.512h-.496c-.208 0-.288-.096-.288-.304v-2.256c0-1.648.544-2.672 1.424-2.672.64 0 .928.416.928 1.312v3.616c0 .208-.096.304-.304.304h-.496v.512h3.968v-.512h-.608c-.208 0-.288-.096-.288-.304v-3.968c0-1.472-.752-2.32-2.08-2.32-1.216 0-2.08.592-2.464 1.696h-.08v-1.6c-.496.048-1.6.096-2.384.096h-.784v.512h.576c.224 0 .304.096.304.304v5.28c0 .208-.08.304-.304.304h-.576v.512h3.952zm11.84.192c1.888 0 3.104-.912 3.104-2.32 0-1.008-.464-1.664-1.424-2.016l-1.472-.544c-.48-.16-.752-.512-.752-.912 0-.544.384-.896 1.024-.896.656 0 1.04.368 1.104 1.024l.064.512h.864c0-.56.064-1.104.16-1.712-.976-.304-1.728-.432-2.432-.432-1.584 0-2.672.928-2.672 2.288 0 .992.416 1.6 1.296 1.904l1.52.576c.528.176.8.496.8.912 0 .64-.496 1.04-1.28 1.04-.752 0-1.216-.384-1.296-1.056l-.064-.608h-.88c0 .528-.048 1.04-.16 1.808.832.272 1.76.432 2.496.432zm6.752 0c1.024 0 1.664-.528 1.664-1.376a3.92 3.92 0 00-.064-.608l-.528.08c.016.128.032.24.032.368 0 .32-.16.576-.384.576s-.352-.208-.352-.576v-5.056h1.472v-.512H177.7v-1.664h-1.104c-.096 1.056-.688 1.664-1.584 1.664h-.48v.512h.688c.112 0 .224.096.224.224v4.176c0 1.424.672 2.192 1.888 2.192zm6.144 0c1.664 0 2.784-.768 3.264-2.192l-.48-.16c-.336 1.024-1.104 1.616-2.064 1.616-1.232 0-1.936-.992-2-2.8h4.464a8.11 8.11 0 00.048-.8c0-1.888-1.088-2.96-3.024-2.96-2.288 0-3.84 1.488-3.84 3.664 0 2.16 1.456 3.632 3.632 3.632zm1.088-4.08h-2.368c.064-1.52.592-2.512 1.424-2.512.624 0 .992.608.992 1.648 0 .24-.016.544-.048.864zm7.296 3.888v-.512h-.448c-.208 0-.288-.096-.288-.288v-2.272c0-1.648.512-2.672 1.376-2.672.56 0 .816.416.816 1.312v3.632c0 .192-.096.288-.304.288h-.416v.512h3.728v-.512h-.432c-.224 0-.304-.096-.304-.288v-2.272c0-1.648.512-2.672 1.376-2.672.56 0 .832.416.832 1.312v3.632c0 .192-.096.288-.304.288h-.448v.512h3.824v-.512h-.496c-.224 0-.304-.096-.304-.288v-3.984c0-1.472-.688-2.32-1.92-2.32-1.264 0-2.144.576-2.56 1.696h-.048c-.176-1.088-.832-1.696-1.872-1.696-1.216 0-2.08.576-2.464 1.696h-.08v-1.6c-.352.048-1.264.096-1.984.096h-1.184v.512h.656c.128 0 .224.096.224.224v5.376c0 .192-.08.288-.288.288h-.592v.512h3.904zm19.456.192c1.088 0 1.792-.544 1.792-1.376 0-.16-.032-.4-.064-.576l-.512.08c.032.144.032.256.032.384 0 .336-.176.576-.416.576s-.368-.224-.368-.608v-2.784c0-1.984-.976-2.992-2.944-2.992-1.744 0-2.88.768-2.88 1.952 0 .608.336.912.928.912.4 0 .736-.112 1.104-.416-.096-.192-.144-.448-.144-.736 0-.656.304-1.024.848-1.024.656 0 .88.56.88 2.56v.064a12.852 12.852 0 00-.8-.032c-2.112 0-3.328.848-3.328 2.352 0 1.008.736 1.664 1.84 1.664 1.12 0 1.984-.72 2.368-1.968h.08c0 1.264.56 1.968 1.584 1.968zm-3.088-1.104c-.464 0-.736-.288-.736-.848 0-.896.752-1.392 2.064-1.392-.112 1.472-.576 2.24-1.328 2.24zm9.584.912v-.512h-.496c-.208 0-.288-.096-.288-.304v-2.256c0-1.648.544-2.672 1.424-2.672.64 0 .928.416.928 1.312v3.616c0 .208-.096.304-.304.304h-.496v.512h3.968v-.512h-.608c-.208 0-.288-.096-.288-.304v-3.968c0-1.472-.752-2.32-2.08-2.32-1.216 0-2.08.592-2.464 1.696h-.08v-1.6c-.496.048-1.6.096-2.384.096h-.784v.512h.576c.224 0 .304.096.304.304v5.28c0 .208-.08.304-.304.304h-.576v.512h3.952zm8.256.192c1.04 0 1.824-.56 2.288-1.632h.096v1.536c.416-.048 1.52-.096 2.368-.096h.8l-.016-.512h-.592c-.208 0-.288-.096-.288-.304v-9.536c-.37.044-1.297.089-2.168.095l-1.016.001v.512h.608c.192 0 .288.08.288.304l.016 2.704a4.496 4.496 0 00-1.84-.368c-1.936 0-3.2 1.456-3.2 3.648 0 2.24 1.024 3.648 2.656 3.648zm.912-1.136c-.72 0-1.216-1.072-1.216-2.624 0-1.792.56-2.848 1.568-2.848.368 0 .784.112 1.12.32v1.84c-.016 1.92-.608 3.312-1.472 3.312zm15.104 1.136c1.088 0 1.792-.544 1.792-1.376 0-.16-.032-.4-.064-.576l-.512.08c.032.144.032.256.032.384 0 .336-.176.576-.416.576s-.368-.224-.368-.608v-2.784c0-1.984-.976-2.992-2.944-2.992-1.744 0-2.88.768-2.88 1.952 0 .608.336.912.928.912.4 0 .736-.112 1.104-.416-.096-.192-.144-.448-.144-.736 0-.656.304-1.024.848-1.024.656 0 .88.56.88 2.56v.064a12.852 12.852 0 00-.8-.032c-2.112 0-3.328.848-3.328 2.352 0 1.008.736 1.664 1.84 1.664 1.12 0 1.984-.72 2.368-1.968h.08c0 1.264.56 1.968 1.584 1.968zm-3.088-1.104c-.464 0-.736-.288-.736-.848 0-.896.752-1.392 2.064-1.392-.112 1.472-.576 2.24-1.328 2.24zm10.064.912v-.512h-1.04a.219.219 0 01-.224-.224V347.6c0-1.92.4-3.024 1.12-3.024.336 0 .576.24.576.736 0 .16-.048.432-.096.56.176.176.592.272.96.272.736 0 1.168-.48 1.168-1.376 0-.976-.592-1.632-1.52-1.632-1.024 0-1.776.656-2.128 1.872h-.08v-1.776c-.384.048-1.36.096-2.096.096h-1.072v.512h.656c.128 0 .224.096.224.224v5.456c0 .112-.096.208-.224.208h-.656v.512h4.432zm6.496.192c1.6 0 2.704-.736 3.152-2.112l-.528-.208c-.304.976-.96 1.552-1.84 1.552-1.216 0-1.92-1.12-1.92-3.04 0-1.68.56-2.8 1.408-2.8.512 0 .848.464.848 1.168 0 .368-.096.736-.272 1.12.24.224.656.368 1.072.368.672 0 1.024-.432 1.024-1.232 0-1.344-.976-2.112-2.656-2.112-2.272 0-3.776 1.472-3.776 3.696 0 2.176 1.376 3.6 3.488 3.6z" fill="#156452" fill-rule="nonzero"/><path stroke="#156452" stroke-linecap="square" d="M150.06 197.24l27 112"/></g></svg>