<svg viewBox="0 0 473 607" xmlns="http://www.w3.org/2000/svg"><g transform="rotate(-6 417.811 20.324)" fill="none" fill-rule="evenodd"><path fill-opacity=".5" fill="#000" opacity=".1" d="M14.918 6.465l409.937 7.155-9.773 559.915L5.145 566.38z"/><path fill="#B30C00" d="M0 0h410v560H0z"/><g transform="translate(119 503)"><rect fill="#000" width="180" height="38" rx="19"/><text font-family="Arapey-Medium, Arapey" font-size="18" font-weight="400" fill="#FFF"><tspan x="20.017" y="24">Termas del Arapey</tspan></text></g><text font-family="Arapey" font-size="57" fill="#000"><tspan x="17.372" y="67" font-weight="100">Travelers’ Choice</tspan></text><path fill="#000" d="M0 0h47L0 47z"/><text transform="rotate(-45 17.765 17.93)" font-family="Arapey-Black, Arapey" font-size="7" font-weight="700" fill="#FFF"><tspan x="1.112" y="19.93">Top Rated</tspan></text><circle fill="#FFF" cx="207" cy="272" r="114"/><text font-family="Arapey" font-size="21" fill="#FFF"><tspan x="22" y="108">Thermal</tspan> <tspan x="22" y="131">Resort</tspan> <tspan x="22" y="154">Hotels</tspan></text><text font-family="Arapey-BlackDisplay, Arapey" font-size="106" font-weight="700" fill="#000"><tspan x="17.456" y="304">Arapey</tspan></text><text font-family="Arapey-Extrabold, Arapey" font-size="45" font-weight="600" fill="#000"><tspan x="82.855" y="223">Welcome to</tspan></text><text font-family="Arapey-Regular, Arapey" font-size="20" fill="#000"><tspan x="136.33" y="248">Resort Village</tspan></text><text font-family="Arapey-Thin, Arapey" font-size="36" font-weight="300" fill="#000"><tspan x="252.79" y="386">Family</tspan> <tspan x="241" y="416">friendly!</tspan></text><g transform="translate(43 359)"><circle fill="#FFF" cx="43" cy="43" r="43"/><text font-family="Arapey_Black-Display, Arapey" font-size="35" font-weight="700" fill="#000"><tspan x="13" y="50">Spa</tspan></text></g><path fill="#000" d="M265 102h144v46H265l10.829-23z"/><text font-family="Arapey-Medium, Arapey" font-size="18" font-weight="400" fill="#FFF" transform="translate(265 102)"><tspan x="28.651" y="29">All-Inclusive</tspan></text><path fill="#000" d="M49 21h87v16H49z"/><text font-family="Arapey-Extrabold, Arapey" font-size="10" font-weight="600" letter-spacing="3.971" fill="#FFF" transform="translate(49 12)"><tspan x="8" y="20">URUGUAY</tspan></text></g></svg>