<svg viewBox="0 0 317 185" xmlns="http://www.w3.org/2000/svg"><g fill="none" fill-rule="evenodd"><path fill="#595959" d="M25.06 1.491l291.336 40.945-1.595 132.063-291.336-40.945z"/><path fill="#000" d="M24.705.923l290.817 40.872-18.567 142.806L.865 142.988 23.588 7.578z"/><path d="M68.69 100.808c1.73.243 3.162.007 4.295-.708s1.802-1.804 2.008-3.268c.076-.543.107-1.37.09-2.482l-1.165.028c.08.651.074 1.311-.02 1.98-.123.879-.433 1.55-.928 2.013-.495.464-1.123.642-1.882.535-.675-.095-1.142-.448-1.4-1.06-.258-.612-.308-1.483-.15-2.612.5-3.555.487-6.371-.038-8.45-.525-2.078-1.678-3.669-3.46-4.772a12.276 12.276 0 00-2.166-1.037l-.092-.033.227-.026a17.405 17.405 0 001.566-.268l.38-.087c2.383-.582 4.293-1.625 5.73-3.129 1.438-1.504 2.313-3.364 2.624-5.58.5-3.555-.413-6.477-2.737-8.765-2.324-2.289-5.849-3.765-10.574-4.43l-14.682-2.063-.14 1.004 2.974.418c.21.03.4.131.57.304.17.173.24.364.21.573l-5.043 35.883a.871.871 0 01-1.01.754l-2.974-.418-.141 1.004 14.935 2.099.14-1.004-4.24-.596a.871.871 0 01-.762-1.003l2.178-15.495 4.873.685c1.793.252 3.172.788 4.137 1.609l.166.147c.97.904 1.578 2.237 1.825 4 .248 1.761.16 4.148-.264 7.159-.288 2.05 0 3.678.862 4.887.863 1.209 2.222 1.943 4.079 2.204zM55.923 59.416l3.101.436c3.586.504 6.143 1.673 7.67 3.509 1.528 1.835 2.063 4.383 1.604 7.646-.305 2.174-.948 3.918-1.929 5.23-.98 1.312-2.289 2.205-3.926 2.679-1.636.473-3.678.538-6.125.194l-3.101-.435 2.706-19.26zm33.905 44.363c2.869.403 5.419.015 7.65-1.164 2.23-1.18 3.886-3.015 4.968-5.507l-.968-.456c-.854 2.098-2.152 3.675-3.892 4.73-1.74 1.057-3.665 1.437-5.775 1.14-2.784-.391-4.753-1.84-5.906-4.348-1.154-2.508-1.428-5.916-.822-10.223l-.043.314 17.971 2.525c.252-.962.43-1.78.537-2.452l.032-.218c.512-3.639-.012-6.57-1.571-8.793-1.56-2.224-4.026-3.573-7.401-4.047-2.743-.386-5.243-.119-7.502.8-2.259.92-4.121 2.385-5.587 4.397-1.466 2.012-2.396 4.419-2.79 7.22-.393 2.803-.193 5.358.601 7.666.794 2.308 2.1 4.197 3.915 5.667 1.815 1.471 4.01 2.387 6.583 2.749zm7.864-14.888l-12.484-1.754.066-.38c.563-3.102 1.541-5.566 2.936-7.393l.176-.225c1.668-2.068 3.64-2.943 5.919-2.622 1.687.237 2.903 1.08 3.646 2.527.743 1.448.944 3.385.603 5.81a29.936 29.936 0 01-.705 3.464l-.157.573zm18.398 18.579c2.194.308 4.141.23 5.841-.235 1.7-.465 3.073-1.274 4.117-2.428s1.69-2.61 1.936-4.366c.247-1.756.014-3.314-.698-4.672-.713-1.358-1.85-2.446-3.414-3.262l-6.002-3.21c-.996-.567-1.745-1.28-2.248-2.14-.503-.86-.681-1.812-.534-2.858.211-1.505.841-2.621 1.89-3.348 1.049-.727 2.396-.975 4.041-.744 1.561.22 2.729.789 3.503 1.708.774.919 1.152 2.209 1.134 3.87l-.001 2.302 1.772.25a49.374 49.374 0 011.369-6.525c-1.563-.817-3-1.456-4.313-1.918a20.673 20.673 0 00-3.993-.977c-2.742-.385-5.075.065-6.998 1.352-1.923 1.286-3.055 3.142-3.396 5.568-.253 1.798-.073 3.348.54 4.65.613 1.301 1.662 2.334 3.147 3.097l6.056 3.282c1.117.626 1.916 1.367 2.398 2.224.482.857.653 1.787.512 2.79-.23 1.632-.959 2.84-2.188 3.627-1.23.787-2.814 1.044-4.755.771-1.772-.249-3.126-.866-4.064-1.85-.937-.985-1.378-2.284-1.323-3.897l-.045-2.437-1.772-.249c-.188 1.339-.65 3.555-1.386 6.65a24.47 24.47 0 004.348 1.89c1.583.522 3.092.883 4.526 1.085zm28.414 3.993c2.869.403 5.419.015 7.65-1.164 2.23-1.179 3.886-3.015 4.968-5.507l-.968-.456c-.855 2.098-2.152 3.675-3.892 4.731-1.74 1.056-3.665 1.436-5.775 1.14-2.784-.392-4.753-1.841-5.906-4.349-1.154-2.508-1.428-5.915-.822-10.223l-.043.314 17.971 2.526c.252-.963.43-1.78.537-2.453l.032-.218c.512-3.639-.012-6.57-1.571-8.793-1.56-2.224-4.026-3.573-7.401-4.047-2.743-.385-5.243-.118-7.502.8-2.259.92-4.121 2.386-5.587 4.397-1.466 2.012-2.396 4.419-2.79 7.22-.393 2.803-.193 5.358.601 7.666.794 2.308 2.1 4.197 3.915 5.668 1.815 1.47 4.01 2.386 6.583 2.748zm7.864-14.887l-12.484-1.755.066-.38c.563-3.102 1.541-5.566 2.936-7.393l.176-.224c1.668-2.07 3.64-2.943 5.919-2.623 1.687.237 2.903 1.08 3.646 2.527.743 1.448.944 3.385.603 5.81a29.936 29.936 0 01-.705 3.464l-.157.574zm24.01 18.599l.14-1.004-4.24-.596a.871.871 0 01-.762-1.002l1.244-8.846c.581-4.14 1.539-7.353 2.87-9.64 1.333-2.286 2.843-3.31 4.53-3.073.76.107 1.337.443 1.73 1.01.394.568.526 1.311.397 2.231a7.417 7.417 0 01-.187.87 3.35 3.35 0 01-.305.788c.218.287.56.527 1.028.72.468.194.955.327 1.461.398 1.013.142 1.839-.072 2.478-.643.64-.572 1.045-1.464 1.215-2.676.218-1.548-.07-2.868-.863-3.96-.793-1.092-1.949-1.745-3.468-1.959-1.94-.272-3.708.215-5.303 1.462-1.595 1.247-2.94 3.159-4.033 5.734l-.316-.044 1.12-7.967c-.657.078-1.723.088-3.2.03a43.726 43.726 0 01-4.365-.39l-2.278-.32-.141 1.004 2.721.383c.337.047.577.177.72.389.142.211.193.464.151.757l-3.218 22.897a.871.871 0 01-1.01.754l-2.847-.4-.14 1.003 14.87 2.09zm24.807 3.486l12.657-23.937.08-.117c.282-.472.591-.684.929-.637l1.772.25.141-1.005-7.214-1.013-.141 1.003 3.164.445-10.21 19.688-4.409-21.743 3.038.427.141-1.003-11.644-1.637-.141 1.004 1.835.258c.337.047.576.337.717.868l.045.135 5.506 26.49 3.734.524zm27.422 4.622c2.868.403 5.418.015 7.65-1.164 2.23-1.18 3.886-3.015 4.968-5.507l-.969-.456c-.854 2.098-2.151 3.675-3.891 4.73-1.74 1.057-3.665 1.437-5.775 1.14-2.784-.391-4.753-1.84-5.907-4.348-1.153-2.508-1.427-5.916-.822-10.223l-.042.314 17.97 2.525c.252-.962.431-1.78.537-2.452l.033-.218c.511-3.639-.013-6.57-1.572-8.793-1.559-2.224-4.026-3.573-7.4-4.047-2.743-.386-5.244-.119-7.502.8-2.26.92-4.122 2.386-5.587 4.397-1.466 2.012-2.396 4.419-2.79 7.22-.394 2.803-.193 5.358.6 7.666.795 2.308 2.1 4.197 3.915 5.668 1.816 1.47 4.01 2.386 6.584 2.748zm7.864-14.888l-12.485-1.754.067-.38c.562-3.102 1.54-5.566 2.935-7.393l.177-.225c1.667-2.068 3.64-2.942 5.918-2.622 1.688.237 2.903 1.08 3.646 2.527.743 1.448.944 3.385.603 5.81a29.936 29.936 0 01-.704 3.464l-.157.573zm18.651 18.614c2.11.297 4.02-.138 5.734-1.305 1.712-1.166 3.22-3.023 4.525-5.569l.38.053-1.093 7.78c.644.004 1.626.057 2.946.157 1.32.1 2.591.237 3.815.408l3.037.427.141-1.003-2.784-.392c-.338-.047-.58-.166-.724-.357-.146-.191-.192-.475-.139-.851l5.449-38.769c-.614.085-1.616.093-3.005.026a45.216 45.216 0 01-4.108-.386l-2.721-.382-.15 1.066 2.784.392c.338.047.57.154.697.322.127.167.165.438.112.815l-1.641 12.111-.008-.006a13.425 13.425 0 00-.91-.638l-.316-.196c-1.705-1.03-3.676-1.7-5.912-2.015-2.447-.344-4.683-.05-6.706.88-2.024.932-3.695 2.414-5.013 4.446-1.319 2.032-2.177 4.47-2.577 7.314-.412 2.928-.356 5.516.167 7.764.523 2.249 1.463 4.055 2.82 5.418 1.357 1.364 3.09 2.194 5.2 2.49zm2.613-2.063c-1.223-.172-2.24-.816-3.052-1.932-.81-1.117-1.343-2.61-1.596-4.479-.254-1.87-.213-3.996.122-6.38.576-4.098 1.707-7.17 3.392-9.215 1.686-2.044 3.773-2.892 6.262-2.542.928.13 1.868.412 2.818.844s1.788.976 2.513 1.632l-1.12 7.967c-.4 2.844-1.068 5.384-2.006 7.619-.938 2.235-2.046 3.924-3.326 5.066-1.279 1.142-2.614 1.615-4.007 1.42z" fill="#F7F7F7" fill-rule="nonzero"/></g></svg>