<svg viewBox="0 0 359 244" xmlns="http://www.w3.org/2000/svg" xmlns:xlink="http://www.w3.org/1999/xlink"><defs><radialGradient cx="50%" cy="40.92%" fx="50%" fy="40.92%" r="1368.026%" gradientTransform="matrix(-.00289 .07791 -.00023 -.99696 .502 .778)" id="b"><stop stop-color="#E7E7E7" offset="0%"/><stop stop-color="#E7E7E7" offset="39.604%"/><stop stop-color="#E7E7E7" offset="100%"/></radialGradient><radialGradient cx="49.996%" cy="41.03%" fx="49.996%" fy="41.03%" r="106.033%" gradientTransform="scale(-.6 -1) rotate(-86.463 -.603 .709)" id="d"><stop stop-color="#FFF" offset="0%"/><stop stop-color="#FFF" offset="56.226%"/><stop stop-color="#E7E7E7" offset="100%"/></radialGradient><rect id="a" x="2" y="17" width="345" height="207" rx="15"/><rect id="c" x="0" y="0" width="345" height="207" rx="15"/></defs><g transform="rotate(-4 335.5 18.773)" fill="none" fill-rule="evenodd"><use fill-opacity=".5" fill="#000" opacity=".1" transform="rotate(1 174.5 120.5)" xlink:href="#a"/><path d="M0 40h345H0z" fill="url(#b)"/><mask id="e" fill="#fff"><use xlink:href="#c"/></mask><use fill="url(#d)" xlink:href="#c"/><path fill="#E7E7E7" mask="url(#e)" d="M63-2h220v213H63z"/><g mask="url(#e)" fill="#B30C00"><path d="M134.5 32.25l-5.584 2.936 1.066-6.218-4.517-4.404 6.243-.907L134.5 18l2.792 5.657 6.243.907-4.517 4.404 1.066 6.218zm19 0l-5.584 2.936 1.066-6.218-4.517-4.404 6.243-.907L153.5 18l2.792 5.657 6.243.907-4.517 4.404 1.066 6.218z"/><path d="M171.5 32.25l-5.584 2.936 1.066-6.218-4.517-4.404 6.243-.907L171.5 18l2.792 5.657 6.243.907-4.517 4.404 1.066 6.218zm20 0l-5.584 2.936 1.066-6.218-4.517-4.404 6.243-.907L191.5 18l2.792 5.657 6.243.907-4.517 4.404 1.066 6.218zm20 0l-5.584 2.936 1.066-6.218-4.517-4.404 6.243-.907L211.5 18l2.792 5.657 6.243.907-4.517 4.404 1.066 6.218z"/></g><text mask="url(#e)" font-family="Arapey" font-size="87" fill="#000"><tspan x="82.413" y="137">Soap!</tspan></text><text mask="url(#e)" font-family="Arapey" font-size="27" fill="#000"><tspan x="125.627" y="68.041">organic</tspan></text></g></svg>