<svg viewBox="0 0 434 434" xmlns="http://www.w3.org/2000/svg"><g fill="none" fill-rule="evenodd"><path d="M175.94 312c34.96 0 60.26-16.56 71.3-46.92h2.3v44.16c11.5-1.38 41.4-2.76 64.4-2.76h36.34v-16.56h-18.4c-3.68 0-6.9-2.76-6.9-6.44V105c-10.019 1.366-38.522 2.732-64.086 2.76H224.7v16.56h18.4c3.68 0 6.44 3.22 6.44 6.9v63.02c0 44.62-13.8 72.22-35.88 72.22-15.64 0-23.92-11.04-23.92-33.58V105c-10.019 1.366-38.522 2.732-64.086 2.76H89v16.56h18.86c3.68 0 6.44 3.22 6.44 6.9V243c0 42.78 23.46 69 61.64 69z" fill="#595959" fill-rule="nonzero"/><path d="M248.245 216.498c35.71.82 64.395 28.928 64.395 63.482a61.257 61.257 0 01-6.025 26.543c-21.659.242-46.764 1.48-57.075 2.717v-44.16h-2.3c-9.598 26.395-29.975 42.36-58.107 46.079-5.408-9.21-8.493-19.848-8.493-31.179 0-12.518 3.765-24.19 10.264-34.024 2.785 13.743 10.517 20.504 22.756 20.504 18.106 0 30.644-18.558 34.57-49.841z" fill="#000" fill-rule="nonzero"/><ellipse style="mix-blend-mode:multiply" cx="66" cy="63.5" rx="66" ry="63.5" transform="translate(180.64 216.48)" fill="#E7E7E7" fill-opacity=".9"/><path d="M179.796 379.48v-.512h-.688c-.208 0-.288-.096-.288-.304v-8.448c0-.208.08-.304.288-.304h.688v-.512h-4.24v.512h.672c.224 0 .304.096.304.304v8.448c0 .208-.08.304-.304.304h-.672v.512h4.24zm5.152 0v-.512h-.496c-.208 0-.288-.096-.288-.304v-2.256c0-1.648.544-2.672 1.424-2.672.64 0 .928.416.928 1.312v3.616c0 .208-.096.304-.304.304h-.496v.512h3.968v-.512h-.608c-.208 0-.288-.096-.288-.304v-3.968c0-1.472-.752-2.32-2.08-2.32-1.216 0-2.08.592-2.464 1.696h-.08v-1.6c-.496.048-1.6.096-2.384.096h-.784v.512h.576c.224 0 .304.096.304.304v5.28c0 .208-.08.304-.304.304h-.576v.512h3.952zm9.536 0v-.512h-.528c-.208 0-.304-.096-.304-.304v-9.536c-.354.044-1.282.089-2.165.095l-1.003.001v.512h.592c.208 0 .304.08.304.304v8.624c0 .208-.096.304-.304.304h-.592v.512h4zm1.344.096a16.65 16.65 0 011.824-.096h1.072v-.512h-.752c-.112 0-.176-.048-.208-.128l-2.032-3.808 1.632-1.792c.096-.096.176-.16.304-.16h.608v-.512h-2.736v.512h.944l-2.64 2.896 1.984 3.6zm9.584.096c1.024 0 1.664-.528 1.664-1.376a3.92 3.92 0 00-.064-.608l-.528.08c.016.128.032.24.032.368 0 .32-.16.576-.384.576s-.352-.208-.352-.576v-5.056h1.472v-.512h-1.472v-1.664h-1.104c-.096 1.056-.688 1.664-1.584 1.664h-.48v.512h.688c.112 0 .224.096.224.224v4.176c0 1.424.672 2.192 1.888 2.192zm7.072-.192v-.512h-1.04a.219.219 0 01-.224-.224v-1.904c0-1.92.4-3.024 1.12-3.024.336 0 .576.24.576.736 0 .16-.048.432-.096.56.176.176.592.272.96.272.736 0 1.168-.48 1.168-1.376 0-.976-.592-1.632-1.52-1.632-1.024 0-1.776.656-2.128 1.872h-.08v-1.776c-.384.048-1.36.096-2.096.096h-1.072v.512h.656c.128 0 .224.096.224.224v5.456c0 .112-.096.208-.224.208h-.656v.512h4.432zm9.008.192c1.088 0 1.792-.544 1.792-1.376 0-.16-.032-.4-.064-.576l-.512.08c.032.144.032.256.032.384 0 .336-.176.576-.416.576s-.368-.224-.368-.608v-2.784c0-1.984-.976-2.992-2.944-2.992-1.744 0-2.88.768-2.88 1.952 0 .608.336.912.928.912.4 0 .736-.112 1.104-.416-.096-.192-.144-.448-.144-.736 0-.656.304-1.024.848-1.024.656 0 .88.56.88 2.56v.064a12.852 12.852 0 00-.8-.032c-2.112 0-3.328.848-3.328 2.352 0 1.008.736 1.664 1.84 1.664 1.12 0 1.984-.72 2.368-1.968h.08c0 1.264.56 1.968 1.584 1.968zm-3.088-1.104c-.464 0-.736-.288-.736-.848 0-.896.752-1.392 2.064-1.392-.112 1.472-.576 2.24-1.328 2.24zm9.584 4.224v-.512h-.752a.219.219 0 01-.224-.224v-2.736c.544.24 1.152.352 1.84.352 1.92 0 3.184-1.456 3.184-3.648 0-2.24-1.024-3.648-2.656-3.648-1.04 0-1.824.56-2.272 1.632h-.096v-1.536c-.368.048-1.328.096-2.064.096h-1.104v.512h.672c.128 0 .224.096.224.224v8.752a.219.219 0 01-.224.224h-.672v.512h4.144zm.128-3.808c-.384 0-.784-.112-1.104-.32v-1.84c0-1.92.592-3.312 1.456-3.312.736 0 1.232 1.072 1.232 2.624 0 1.792-.592 2.848-1.584 2.848zm7.552.688c1.888 0 3.104-.912 3.104-2.32 0-1.008-.464-1.664-1.424-2.016l-1.472-.544c-.48-.16-.752-.512-.752-.912 0-.544.384-.896 1.024-.896.656 0 1.04.368 1.104 1.024l.064.512h.864c0-.56.064-1.104.16-1.712-.976-.304-1.728-.432-2.432-.432-1.584 0-2.672.928-2.672 2.288 0 .992.416 1.6 1.296 1.904l1.52.576c.528.176.8.496.8.912 0 .64-.496 1.04-1.28 1.04-.752 0-1.216-.384-1.296-1.056l-.064-.608h-.88c0 .528-.048 1.04-.16 1.808.832.272 1.76.432 2.496.432z" fill="#156452" fill-rule="nonzero"/><path stroke="#156452" stroke-linecap="square" d="M240.64 294.48l-32 64"/></g></svg>