<svg viewBox="0 0 434 434" xmlns="http://www.w3.org/2000/svg"><g fill="none" fill-rule="evenodd"><path d="M271.62 343.72L344.3 168c1.84-3.68 2.76-6.44 6.44-6.44h13.34V145h-67.62v16.56H319l-43.7 108.1-44.16-108.1h22.08V145H135v16.56h13.34c3.68 0 5.06 2.76 6.44 6.44l73.14 175.72h43.7z" fill="#595959" fill-rule="nonzero"/><path d="M364.08 145v16.56h-13.34c-3.68 0-4.6 2.76-6.44 6.44l-20.292 49.063a67.268 67.268 0 01-24.126-8.21L319 161.56h-22.54V145h67.62z" fill="#000" fill-rule="nonzero"/><ellipse style="mix-blend-mode:multiply" cx="66" cy="63.5" rx="66" ry="63.5" transform="translate(267.54 90.72)" fill="#E7E7E7" fill-opacity=".9"/><path d="M236.1 43.72c3.056 0 5.04-1.984 5.04-5.04s-1.984-5.04-5.04-5.04h-4.896v.512h.752c.128 0 .224.08.224.192v8.672c0 .096-.096.192-.224.192h-.752v.512h4.896zm-.352-.672h-1.28v-8.752h1.28c2.016 0 3.04 1.472 3.04 4.384 0 2.896-1.024 4.368-3.04 4.368zm8.512-7.28c.736 0 1.312-.576 1.312-1.312 0-.736-.576-1.312-1.312-1.312-.736 0-1.312.576-1.312 1.312 0 .736.576 1.312 1.312 1.312zm2.048 7.952v-.512h-.608c-.208 0-.288-.096-.288-.304v-6.192c-.354.044-1.282.089-2.165.095l-1.003.001v.512h.576c.224 0 .304.096.304.304v5.28c0 .208-.08.304-.304.304h-.576v.512h4.064zm6.896.192c1.088 0 1.792-.544 1.792-1.376 0-.16-.032-.4-.064-.576l-.512.08c.032.144.032.256.032.384 0 .336-.176.576-.416.576s-.368-.224-.368-.608v-2.784c0-1.984-.976-2.992-2.944-2.992-1.744 0-2.88.768-2.88 1.952 0 .608.336.912.928.912.4 0 .736-.112 1.104-.416-.096-.192-.144-.448-.144-.736 0-.656.304-1.024.848-1.024.656 0 .88.56.88 2.56v.064a12.852 12.852 0 00-.8-.032c-2.112 0-3.328.848-3.328 2.352 0 1.008.736 1.664 1.84 1.664 1.12 0 1.984-.72 2.368-1.968h.08c0 1.264.56 1.968 1.584 1.968zm-3.088-1.104c-.464 0-.736-.288-.736-.848 0-.896.752-1.392 2.064-1.392-.112 1.472-.576 2.24-1.328 2.24zm8.624 4.56c2.224 0 3.952-1.152 3.952-2.672 0-1.232-.864-1.92-2.416-1.92H258.1c-.576 0-.864-.208-.864-.656 0-.4.368-.64.992-.64h.848c1.824 0 3.136-.912 3.136-2.432 0-1.04-.64-1.808-1.632-2.176.208-.512.448-.768.752-.768.272 0 .448.176.448.496 0 .08-.016.224-.064.336.112.096.4.16.64.16.496 0 .8-.32.8-.864 0-.704-.448-1.088-1.184-1.088-.832 0-1.44.576-1.712 1.616a4.707 4.707 0 00-1.184-.144c-1.824 0-3.136.912-3.136 2.432 0 .912.48 1.616 1.28 2.032v.128c-.992.144-1.552.72-1.552 1.616 0 .48.176.88.48 1.152-.416.448-.64.912-.64 1.392 0 1.216 1.28 2 3.232 2zm.32-6.576c-.608 0-1.008-.672-1.008-1.744s.4-1.744 1.008-1.744c.624 0 1.04.656 1.04 1.744s-.416 1.744-1.04 1.744zm-.192 5.936c-1.152 0-1.792-.624-1.792-1.712 0-.192.032-.384.08-.56.144.016.304.032.48.032h2.64c.736 0 1.024.208 1.024.704 0 .8-1.168 1.536-2.432 1.536zm8.56-2.816c2.16 0 3.744-1.328 3.744-3.648 0-2.32-1.584-3.648-3.744-3.648-2.192 0-3.744 1.328-3.744 3.648 0 2.32 1.568 3.648 3.744 3.648zm0-.704c-.816 0-1.392-1.056-1.392-2.944s.576-2.944 1.392-2.944c.8 0 1.392 1.056 1.392 2.944s-.592 2.944-1.392 2.944zm8.784.512v-.512h-.496c-.208 0-.288-.096-.288-.304v-2.256c0-1.648.544-2.672 1.424-2.672.64 0 .928.416.928 1.312v3.616c0 .208-.096.304-.304.304h-.496v.512h3.968v-.512h-.608c-.208 0-.288-.096-.288-.304v-3.968c0-1.472-.752-2.32-2.08-2.32-1.216 0-2.08.592-2.464 1.696h-.08v-1.6c-.496.048-1.6.096-2.384.096h-.784v.512h.576c.224 0 .304.096.304.304v5.28c0 .208-.08.304-.304.304h-.576v.512h3.952zm11.6.192c1.088 0 1.792-.544 1.792-1.376 0-.16-.032-.4-.064-.576l-.512.08c.032.144.032.256.032.384 0 .336-.176.576-.416.576s-.368-.224-.368-.608v-2.784c0-1.984-.976-2.992-2.944-2.992-1.744 0-2.88.768-2.88 1.952 0 .608.336.912.928.912.4 0 .736-.112 1.104-.416-.096-.192-.144-.448-.144-.736 0-.656.304-1.024.848-1.024.656 0 .88.56.88 2.56v.064a12.852 12.852 0 00-.8-.032c-2.112 0-3.328.848-3.328 2.352 0 1.008.736 1.664 1.84 1.664 1.12 0 1.984-.72 2.368-1.968h.08c0 1.264.56 1.968 1.584 1.968zm-3.088-1.104c-.464 0-.736-.288-.736-.848 0-.896.752-1.392 2.064-1.392-.112 1.472-.576 2.24-1.328 2.24zm9.488.912v-.512h-.576c-.208 0-.304-.096-.304-.304v-9.536c-.354.044-1.282.089-2.165.095l-1.003.001v.512h.592c.208 0 .304.08.304.304v8.624c0 .208-.096.304-.304.304h-.592v.512h4.048zm8.096.192c1.664 0 2.784-.768 3.264-2.192l-.48-.16c-.336 1.024-1.104 1.616-2.064 1.616-1.232 0-1.936-.992-2-2.8h4.464a8.11 8.11 0 00.048-.8c0-1.888-1.088-2.96-3.024-2.96-2.288 0-3.84 1.488-3.84 3.664 0 2.16 1.456 3.632 3.632 3.632zm1.088-4.08h-2.368c.064-1.52.592-2.512 1.424-2.512.624 0 .992.608.992 1.648 0 .24-.016.544-.048.864zm7.344 3.888v-.512h-.496c-.208 0-.288-.096-.288-.304v-2.256c0-1.648.544-2.672 1.424-2.672.64 0 .928.416.928 1.312v3.616c0 .208-.096.304-.304.304h-.496v.512h3.968v-.512h-.608c-.208 0-.288-.096-.288-.304v-3.968c0-1.472-.752-2.32-2.08-2.32-1.216 0-2.08.592-2.464 1.696h-.08v-1.6c-.496.048-1.6.096-2.384.096h-.784v.512h.576c.224 0 .304.096.304.304v5.28c0 .208-.08.304-.304.304h-.576v.512h3.952zm9.088.192c1.6 0 2.704-.736 3.152-2.112l-.528-.208c-.304.976-.96 1.552-1.84 1.552-1.216 0-1.92-1.12-1.92-3.04 0-1.68.56-2.8 1.408-2.8.512 0 .848.464.848 1.168 0 .368-.096.736-.272 1.12.24.224.656.368 1.072.368.672 0 1.024-.432 1.024-1.232 0-1.344-.976-2.112-2.656-2.112-2.272 0-3.776 1.472-3.776 3.696 0 2.176 1.376 3.6 3.488 3.6zm7.728 0c2.16 0 3.744-1.328 3.744-3.648 0-2.32-1.584-3.648-3.744-3.648-2.192 0-3.744 1.328-3.744 3.648 0 2.32 1.568 3.648 3.744 3.648zm0-.704c-.816 0-1.392-1.056-1.392-2.944s.576-2.944 1.392-2.944c.8 0 1.392 1.056 1.392 2.944s-.592 2.944-1.392 2.944zm7.632.704c1.2 0 2.064-.624 2.448-1.744h.08v1.648c.368-.048 1.296-.096 2.016-.096h1.152v-.512h-.672c-.128 0-.24-.096-.24-.224v-6.272c-.293.044-1.098.088-1.858.095l-1.294.001v.512h.672c.128 0 .224.112.224.24v2.192c0 1.744-.544 2.8-1.424 2.8-.608 0-.928-.432-.928-1.28v-4.56c-.308.044-1.113.088-1.874.095l-1.294.001v.512h.672c.128 0 .224.112.224.24v3.984c0 1.488.768 2.368 2.096 2.368zm10.672-.192v-.512h-.496c-.208 0-.288-.096-.288-.304v-2.256c0-1.648.544-2.672 1.424-2.672.64 0 .928.416.928 1.312v3.616c0 .208-.096.304-.304.304h-.496v.512h3.968v-.512h-.608c-.208 0-.288-.096-.288-.304v-3.968c0-1.472-.752-2.32-2.08-2.32-1.216 0-2.08.592-2.464 1.696h-.08v-1.6c-.496.048-1.6.096-2.384.096h-.784v.512h.576c.224 0 .304.096.304.304v5.28c0 .208-.08.304-.304.304h-.576v.512h3.952zm8.224.192c1.024 0 1.664-.528 1.664-1.376a3.92 3.92 0 00-.064-.608l-.528.08c.016.128.032.24.032.368 0 .32-.16.576-.384.576s-.352-.208-.352-.576V37.32h1.472v-.512h-1.472v-1.664h-1.104c-.096 1.056-.688 1.664-1.584 1.664h-.48v.512h.688c.112 0 .224.096.224.224v4.176c0 1.424.672 2.192 1.888 2.192zm6.144 0c1.664 0 2.784-.768 3.264-2.192l-.48-.16c-.336 1.024-1.104 1.616-2.064 1.616-1.232 0-1.936-.992-2-2.8h4.464a8.11 8.11 0 00.048-.8c0-1.888-1.088-2.96-3.024-2.96-2.288 0-3.84 1.488-3.84 3.664 0 2.16 1.456 3.632 3.632 3.632zm1.088-4.08h-2.368c.064-1.52.592-2.512 1.424-2.512.624 0 .992.608.992 1.648 0 .24-.016.544-.048.864zm7.824 3.888v-.512h-1.04a.219.219 0 01-.224-.224V41.08c0-1.92.4-3.024 1.12-3.024.336 0 .576.24.576.736 0 .16-.048.432-.096.56.176.176.592.272.96.272.736 0 1.168-.48 1.168-1.376 0-.976-.592-1.632-1.52-1.632-1.024 0-1.776.656-2.128 1.872h-.08v-1.776c-.384.048-1.36.096-2.096.096h-1.072v.512h.656c.128 0 .224.096.224.224V43c0 .112-.096.208-.224.208h-.656v.512h4.432zm5.68.192c1.888 0 3.104-.912 3.104-2.32 0-1.008-.464-1.664-1.424-2.016l-1.472-.544c-.48-.16-.752-.512-.752-.912 0-.544.384-.896 1.024-.896.656 0 1.04.368 1.104 1.024l.064.512h.864c0-.56.064-1.104.16-1.712-.976-.304-1.728-.432-2.432-.432-1.584 0-2.672.928-2.672 2.288 0 .992.416 1.6 1.296 1.904l1.52.576c.528.176.8.496.8.912 0 .64-.496 1.04-1.28 1.04-.752 0-1.216-.384-1.296-1.056l-.064-.608h-.88c0 .528-.048 1.04-.16 1.808.832.272 1.76.432 2.496.432zm-147.472 18c2.16 0 3.744-1.328 3.744-3.648 0-2.32-1.584-3.648-3.744-3.648-2.192 0-3.744 1.328-3.744 3.648 0 2.32 1.568 3.648 3.744 3.648zm0-.704c-.816 0-1.392-1.056-1.392-2.944s.576-2.944 1.392-2.944c.8 0 1.392 1.056 1.392 2.944s-.592 2.944-1.392 2.944zm7.632.704c1.2 0 2.064-.624 2.448-1.744h.08v1.648c.368-.048 1.296-.096 2.016-.096h1.152v-.512h-.672c-.128 0-.24-.096-.24-.224v-6.272c-.32.048-1.248.096-2.064.096h-1.088v.512h.672c.128 0 .224.112.224.24v2.192c0 1.744-.544 2.8-1.424 2.8-.608 0-.928-.432-.928-1.28v-4.56c-.336.048-1.264.096-2.08.096h-1.088v.512h.672c.128 0 .224.112.224.24v3.984c0 1.488.768 2.368 2.096 2.368zm9.216 0c1.024 0 1.664-.528 1.664-1.376a3.92 3.92 0 00-.064-.608l-.528.08c.016.128.032.24.032.368 0 .32-.16.576-.384.576s-.352-.208-.352-.576V55.32h1.472v-.512h-1.472v-1.664h-1.104c-.096 1.056-.688 1.664-1.584 1.664h-.48v.512h.688c.112 0 .224.096.224.224v4.176c0 1.424.672 2.192 1.888 2.192zm6.144 0c1.664 0 2.784-.768 3.264-2.192l-.48-.16c-.336 1.024-1.104 1.616-2.064 1.616-1.232 0-1.936-.992-2-2.8h4.464a8.11 8.11 0 00.048-.8c0-1.888-1.088-2.96-3.024-2.96-2.288 0-3.84 1.488-3.84 3.664 0 2.16 1.456 3.632 3.632 3.632zm1.088-4.08h-2.368c.064-1.52.592-2.512 1.424-2.512.624 0 .992.608.992 1.648 0 .24-.016.544-.048.864zm7.824 3.888v-.512h-1.04a.219.219 0 01-.224-.224V59.08c0-1.92.4-3.024 1.12-3.024.336 0 .576.24.576.736 0 .16-.048.432-.096.56.176.176.592.272.96.272.736 0 1.168-.48 1.168-1.376 0-.976-.592-1.632-1.52-1.632-1.024 0-1.776.656-2.128 1.872h-.08v-1.776c-.384.048-1.36.096-2.096.096h-1.072v.512h.656c.128 0 .224.096.224.224V61c0 .112-.096.208-.224.208h-.656v.512h4.432zm9.248.192c1.888 0 3.104-.912 3.104-2.32 0-1.008-.464-1.664-1.424-2.016l-1.472-.544c-.48-.16-.752-.512-.752-.912 0-.544.384-.896 1.024-.896.656 0 1.04.368 1.104 1.024l.064.512h.864c0-.56.064-1.104.16-1.712-.976-.304-1.728-.432-2.432-.432-1.584 0-2.672.928-2.672 2.288 0 .992.416 1.6 1.296 1.904l1.52.576c.528.176.8.496.8.912 0 .64-.496 1.04-1.28 1.04-.752 0-1.216-.384-1.296-1.056l-.064-.608h-.88c0 .528-.048 1.04-.16 1.808.832.272 1.76.432 2.496.432zm7.872 0c2.16 0 3.744-1.328 3.744-3.648 0-2.32-1.584-3.648-3.744-3.648-2.192 0-3.744 1.328-3.744 3.648 0 2.32 1.568 3.648 3.744 3.648zm0-.704c-.816 0-1.392-1.056-1.392-2.944s.576-2.944 1.392-2.944c.8 0 1.392 1.056 1.392 2.944s-.592 2.944-1.392 2.944zm9.28.512v-.512h-1.04c-.128 0-.256-.096-.256-.192V55.32h1.6v-.512h-1.6V52.92c0-.672.224-1.04.624-1.04.32 0 .544.256.544.64 0 .368-.08.704-.272 1.088.24.224.656.368 1.056.368.576 0 .928-.4.928-1.088 0-1.088-.752-1.728-2.016-1.728-1.84 0-2.912 1.216-3.12 3.648h-.896v.512h.656c.128 0 .224.096.224.224v5.44a.219.219 0 01-.224.224h-.656v.512h4.448zm3.488.192c1.024 0 1.664-.528 1.664-1.376a3.92 3.92 0 00-.064-.608l-.528.08c.016.128.032.24.032.368 0 .32-.16.576-.384.576s-.352-.208-.352-.576V55.32h1.472v-.512h-1.472v-1.664h-1.104c-.096 1.056-.688 1.664-1.584 1.664h-.48v.512h.688c.112 0 .224.096.224.224v4.176c0 1.424.672 2.192 1.888 2.192zm7.664.928l4.064-12.32h-1.92l-4.064 12.32h1.92zm10.4-9.072c.736 0 1.312-.576 1.312-1.312 0-.736-.576-1.312-1.312-1.312-.736 0-1.312.576-1.312 1.312 0 .736.576 1.312 1.312 1.312zm2.048 7.952v-.512h-.608c-.208 0-.288-.096-.288-.304v-6.192c-.384.048-1.44.096-2.384.096h-.784v.512h.576c.224 0 .304.096.304.304v5.28c0 .208-.08.304-.304.304h-.576v.512h4.064zm4.976 0v-.512h-.496c-.208 0-.288-.096-.288-.304v-2.256c0-1.648.544-2.672 1.424-2.672.64 0 .928.416.928 1.312v3.616c0 .208-.096.304-.304.304h-.496v.512h3.968v-.512h-.608c-.208 0-.288-.096-.288-.304v-3.968c0-1.472-.752-2.32-2.08-2.32-1.216 0-2.08.592-2.464 1.696h-.08v-1.6c-.496.048-1.6.096-2.384.096h-.784v.512h.576c.224 0 .304.096.304.304v5.28c0 .208-.08.304-.304.304h-.576v.512h3.952zm9.68 0v-.512h-.496c-.208 0-.288-.096-.288-.304v-2.256c0-1.648.544-2.672 1.424-2.672.64 0 .928.416.928 1.312v3.616c0 .208-.096.304-.304.304h-.496v.512h3.968v-.512h-.608c-.208 0-.288-.096-.288-.304v-3.968c0-1.472-.752-2.32-2.08-2.32-1.216 0-2.08.592-2.464 1.696h-.08v-1.6c-.496.048-1.6.096-2.384.096h-.784v.512h.576c.224 0 .304.096.304.304v5.28c0 .208-.08.304-.304.304h-.576v.512h3.952zm9.232.192c1.664 0 2.784-.768 3.264-2.192l-.48-.16c-.336 1.024-1.104 1.616-2.064 1.616-1.232 0-1.936-.992-2-2.8h4.464a8.11 8.11 0 00.048-.8c0-1.888-1.088-2.96-3.024-2.96-2.288 0-3.84 1.488-3.84 3.664 0 2.16 1.456 3.632 3.632 3.632zm1.088-4.08h-2.368c.064-1.52.592-2.512 1.424-2.512.624 0 .992.608.992 1.648 0 .24-.016.544-.048.864zm7.824 3.888v-.512h-1.04a.219.219 0 01-.224-.224V59.08c0-1.92.4-3.024 1.12-3.024.336 0 .576.24.576.736 0 .16-.048.432-.096.56.176.176.592.272.96.272.736 0 1.168-.48 1.168-1.376 0-.976-.592-1.632-1.52-1.632-1.024 0-1.776.656-2.128 1.872h-.08v-1.776c-.384.048-1.36.096-2.096.096h-1.072v.512h.656c.128 0 .224.096.224.224V61c0 .112-.096.208-.224.208h-.656v.512h4.432zm9.248.192c1.888 0 3.104-.912 3.104-2.32 0-1.008-.464-1.664-1.424-2.016l-1.472-.544c-.48-.16-.752-.512-.752-.912 0-.544.384-.896 1.024-.896.656 0 1.04.368 1.104 1.024l.064.512h.864c0-.56.064-1.104.16-1.712-.976-.304-1.728-.432-2.432-.432-1.584 0-2.672.928-2.672 2.288 0 .992.416 1.6 1.296 1.904l1.52.576c.528.176.8.496.8.912 0 .64-.496 1.04-1.28 1.04-.752 0-1.216-.384-1.296-1.056l-.064-.608h-.88c0 .528-.048 1.04-.16 1.808.832.272 1.76.432 2.496.432zm8.016-.192v-.512h-.48c-.208 0-.304-.096-.304-.288v-2.272c0-1.648.528-2.672 1.424-2.672.64 0 .928.416.928 1.312v3.632c0 .192-.08.288-.288.288h-.48v.512h3.936v-.512h-.592c-.208 0-.304-.096-.304-.288v-3.984c0-1.472-.736-2.32-2.08-2.32-1.216 0-2.064.576-2.464 1.696h-.08v-5.056c-.384.048-1.328.096-2.032.096h-1.136v.512h.672c.128 0 .224.096.224.224v8.832c0 .192-.096.288-.304.288h-.592v.512h3.952zm11.616.192c1.088 0 1.792-.544 1.792-1.376 0-.16-.032-.4-.064-.576l-.512.08c.032.144.032.256.032.384 0 .336-.176.576-.416.576s-.368-.224-.368-.608v-2.784c0-1.984-.976-2.992-2.944-2.992-1.744 0-2.88.768-2.88 1.952 0 .608.336.912.928.912.4 0 .736-.112 1.104-.416-.096-.192-.144-.448-.144-.736 0-.656.304-1.024.848-1.024.656 0 .88.56.88 2.56v.064a12.852 12.852 0 00-.8-.032c-2.112 0-3.328.848-3.328 2.352 0 1.008.736 1.664 1.84 1.664 1.12 0 1.984-.72 2.368-1.968h.08c0 1.264.56 1.968 1.584 1.968zm-3.088-1.104c-.464 0-.736-.288-.736-.848 0-.896.752-1.392 2.064-1.392-.112 1.472-.576 2.24-1.328 2.24zm10.064.912v-.512h-1.04a.219.219 0 01-.224-.224V59.08c0-1.92.4-3.024 1.12-3.024.336 0 .576.24.576.736 0 .16-.048.432-.096.56.176.176.592.272.96.272.736 0 1.168-.48 1.168-1.376 0-.976-.592-1.632-1.52-1.632-1.024 0-1.776.656-2.128 1.872h-.08v-1.776c-.384.048-1.36.096-2.096.096h-1.072v.512h.656c.128 0 .224.096.224.224V61c0 .112-.096.208-.224.208h-.656v.512h4.432zm7.088 3.312v-.512h-.752a.219.219 0 01-.224-.224V61.56c.544.24 1.152.352 1.84.352 1.92 0 3.184-1.456 3.184-3.648 0-2.24-1.024-3.648-2.656-3.648-1.04 0-1.824.56-2.272 1.632h-.096v-1.536c-.368.048-1.328.096-2.064.096h-1.104v.512h.672c.128 0 .224.096.224.224v8.752a.219.219 0 01-.224.224h-.672v.512h4.144zm.128-3.808c-.384 0-.784-.112-1.104-.32v-1.84c0-1.92.592-3.312 1.456-3.312.736 0 1.232 1.072 1.232 2.624 0 1.792-.592 2.848-1.584 2.848z" fill="#156452" fill-rule="nonzero"/><path stroke="#156452" stroke-linecap="square" d="M304.54 73.72l27 81"/></g></svg>