<svg viewBox="0 0 398 259" xmlns="http://www.w3.org/2000/svg"><g fill="none" fill-rule="evenodd"><path fill-opacity=".5" fill="#000" opacity=".1" d="M13.024 38.813l369.098-25.81 15.347 219.464-369.099 25.81z"/><path fill="#F7F7F7" d="M.53 33.092L369.122.844l19.174 219.163-368.592 32.248z"/><text font-family="Arapey-Bold, Arapey" font-size="14" font-weight="bold" fill="#000" transform="rotate(-5 620.172 -252.46)"><tspan x="2" y="79">Eduardo Rodríguez Tunni</tspan> <tspan x="2" y="94" font-family="Arapey-Regular, Arapey" font-size="12" font-weight="normal">Owner &amp; Founder</tspan></text><text font-family="Arapey-Regular, Arapey" font-size="9" fill="#000" transform="rotate(-5 620.172 -252.46)"><tspan x="2" y="147">Salto Department del Uruguay</tspan> <tspan x="2" y="157">Camino al Barceló 8</tspan> <tspan x="2" y="167">50283 Salto</tspan></text><path d="M35.304 80.24l-.082-.93-1.884.166c-.419.036-.647-.167-.686-.61l-1.027-11.732 11.892-1.04 1.026 11.732c.04.443-.109.679-.528.716l-1.926.168.082.93 8.541-.747-.081-.93-1.884.165c-.46.04-.648-.167-.686-.61l-2.162-24.705c-.039-.443.11-.679.57-.72l1.884-.164-.081-.93-8.542.747.082.93 1.926-.168c.418-.037.605.17.644.613l1.026 11.732-11.891 1.04-1.027-11.732c-.038-.443.152-.683.57-.72l1.885-.164-.082-.93-8.5.744.082.93 1.884-.165c.46-.04.647.166.686.609l2.162 24.706c.038.442-.11.678-.57.719l-1.885.164.082.93 8.5-.743zm49.778-4.05c2.243-.195 3.567-1.625 3.392-3.623-.05-.565-.18-1.08-.313-1.637l-.874.252c.161.38.238.767.272 1.158.099 1.13-.51 1.971-1.44 2.053-.889.077-1.427-.707-1.575-2.402-.46-5.257-2-7.75-5.549-8.358 3.548-1.361 5.52-4.16 5.208-7.723-.43-4.91-4.227-7.38-10.362-6.843l-9.435.826.08.912 1.989-.174c.338-.03.611.166.638.47l2.136 24.417c.03.348-.2.63-.54.66l-1.988.174.08.913 9.562-.837-.08-.912-2.834.248a.589.589 0 01-.646-.557l-.916-10.47 3.3-.29c3.893-.34 5.39 1.674 5.93 7.844.24 2.737 1.68 4.1 3.965 3.9zM73.735 63.13l-2.131.186-1.133-12.95 2.13-.187c4.584-.4 7.017 1.482 7.4 5.856.383 4.375-1.683 6.694-6.266 7.095z" fill="#000" fill-rule="nonzero"/><path d="M56.088 71.7c1.51-.131 2.874-.702 3.812-1.902l1.161 1.339a16.356 16.356 0 012.19-.32l.971-.086-.04-.448-.625.055c-.518.045-.92-.07-1.28-.468l-1.497-1.696 1.116-3.407c.065-.242.187-.338.403-.357l1.036-.09-.04-.449-3.28.287.04.448 1.273-.111-1.008 3.14-3.163-3.592c1.628-1.023 2.934-2.255 2.792-3.876-.162-1.855-1.823-2.698-3.787-2.526-2.352.205-3.293 1.62-3.16 3.156.096 1.087.858 2.095 1.508 2.812l.677.778c-1.828.977-3.38 2.123-3.195 4.234.175 2.004 1.636 3.295 4.096 3.08zm.811-9.105l-.493-.592c-.364-.439-1.104-1.44-1.21-2.639-.083-.956.258-1.661 1.191-1.743 1.047-.092 1.73.689 1.843 1.99.12 1.362-.49 2.296-1.331 2.984zm-.84 8.104c-1.711.15-2.958-.865-3.097-2.464-.139-1.579.79-2.572 2.058-3.468l4.031 4.228c-.786 1.002-1.844 1.604-2.992 1.704z" fill="#B30C00" fill-rule="nonzero"/><text font-family="Arapey-Light, Arapey" font-size="13" font-weight="300" letter-spacing=".4" fill="#B30C00" transform="rotate(-5 620.172 -252.46)"><tspan x="190.083" y="12">hotel • resort • spa • pool</tspan></text></g></svg>