<svg viewBox="0 0 434 434" xmlns="http://www.w3.org/2000/svg"><g fill="none" fill-rule="evenodd"><path d="M173.74 368.22c29.9 0 52.44-14.26 64.86-41.86h2.76v39.1c14.26-1.38 50.14-2.76 77.74-2.76h23.46l-.46-16.56h-15.64c-6.44 0-9.2-3.22-9.2-9.66V66c-12.296 1.366-46.232 2.732-76.814 2.76H216.52v16.56h15.64c6.44 0 9.2 2.76 9.2 9.66v72.68c-15.18-5.98-32.66-9.2-51.98-9.2-56.12 0-93.38 41.86-93.38 104.88 0 63.94 30.36 104.88 77.74 104.88zm30.36-38.18c-17.94 0-29.9-28.52-29.9-70.84 0-49.22 14.26-78.2 39.56-78.2 9.2 0 19.32 2.76 27.6 7.82v51.52c0 52.9-14.72 89.7-37.26 89.7z" fill="#595959" fill-rule="nonzero"/><path d="M317.26 66v69.29c-12.986 9.664-29.25 15.41-46.9 15.41-10.26 0-20.05-1.941-29-5.465V94.98c0-6.9-2.76-9.66-9.2-9.66h-15.64V68.76h23.926c30.582-.028 64.518-1.394 76.814-2.76z" fill="#000" fill-rule="nonzero"/><ellipse style="mix-blend-mode:multiply" cx="77" cy="74.5" rx="77" ry="74.5" transform="translate(193.36 1.7)" fill="#E7E7E7" fill-opacity=".9"/><path d="M100.688 82.892c1.696 0 2.464-.784 2.864-.784.176 0 .256.096.272.336l.016.256h.64v-3.024h-.832c-.128 1.728-1.248 2.416-2.496 2.416-1.648 0-2.88-1.616-2.88-4.416 0-2.784 1.184-4.448 2.88-4.448 1.232 0 2.32.656 2.496 2.416h.832v-3.12h-.64l-.016.272c-.016.24-.096.336-.272.336-.464 0-1.216-.704-2.864-.704-2.768 0-4.752 1.92-4.752 5.248 0 3.312 2.032 5.216 4.752 5.216zm7.984 0c1.2 0 2.064-.624 2.448-1.744h.08v1.648c.368-.048 1.296-.096 2.016-.096h1.152v-.512h-.672c-.128 0-.24-.096-.24-.224v-6.272c-.293.044-1.098.088-1.858.095l-1.294.001v.512h.672c.128 0 .224.112.224.24v2.192c0 1.744-.544 2.8-1.424 2.8-.608 0-.928-.432-.928-1.28v-4.56c-.308.044-1.113.088-1.874.095l-1.294.001v.512h.672c.128 0 .224.112.224.24v3.984c0 1.488.768 2.368 2.096 2.368zm11.152-.192v-.512h-1.04a.219.219 0 01-.224-.224V80.06c0-1.92.4-3.024 1.12-3.024.336 0 .576.24.576.736 0 .16-.048.432-.096.56.176.176.592.272.96.272.736 0 1.168-.48 1.168-1.376 0-.976-.592-1.632-1.52-1.632-1.024 0-1.776.656-2.128 1.872h-.08v-1.776c-.384.048-1.36.096-2.096.096h-1.072v.512h.656c.128 0 .224.096.224.224v5.456c0 .112-.096.208-.224.208h-.656v.512h4.432zm7.12 0l2.464-6.176c.064-.128.096-.224.224-.224h.448v-.512h-2.224v.512h.784l-1.6 4.128-1.6-4.128h.768v-.512h-3.744v.512h.48c.128 0 .16.096.224.224l2.448 6.176h1.328zm7.376.192c1.664 0 2.784-.768 3.264-2.192l-.48-.16c-.336 1.024-1.104 1.616-2.064 1.616-1.232 0-1.936-.992-2-2.8h4.464a8.11 8.11 0 00.048-.8c0-1.888-1.088-2.96-3.024-2.96-2.288 0-3.84 1.488-3.84 3.664 0 2.16 1.456 3.632 3.632 3.632zm1.088-4.08h-2.368c.064-1.52.592-2.512 1.424-2.512.624 0 .992.608.992 1.648 0 .24-.016.544-.048.864zm5.92 4.08c1.04 0 1.824-.56 2.288-1.632h.096v1.536c.416-.048 1.52-.096 2.368-.096h.8l-.016-.512h-.592c-.208 0-.288-.096-.288-.304v-9.536c-.37.044-1.297.089-2.168.095l-1.016.001v.512h.608c.192 0 .288.08.288.304l.016 2.704a4.496 4.496 0 00-1.84-.368c-1.936 0-3.2 1.456-3.2 3.648 0 2.24 1.024 3.648 2.656 3.648zm.912-1.136c-.72 0-1.216-1.072-1.216-2.624 0-1.792.56-2.848 1.568-2.848.368 0 .784.112 1.12.32v1.84c-.016 1.92-.608 3.312-1.472 3.312zm-50.736 19.136c1.024 0 1.664-.528 1.664-1.376a3.92 3.92 0 00-.064-.608l-.528.08c.016.128.032.24.032.368 0 .32-.16.576-.384.576s-.352-.208-.352-.576V94.3h1.472v-.512h-1.472v-1.664h-1.104c-.096 1.056-.688 1.664-1.584 1.664h-.48v.512h.688c.112 0 .224.096.224.224V98.7c0 1.424.672 2.192 1.888 2.192zm6.256 0c2.16 0 3.744-1.328 3.744-3.648 0-2.32-1.584-3.648-3.744-3.648-2.192 0-3.744 1.328-3.744 3.648 0 2.32 1.568 3.648 3.744 3.648zm0-.704c-.816 0-1.392-1.056-1.392-2.944s.576-2.944 1.392-2.944c.8 0 1.392 1.056 1.392 2.944s-.592 2.944-1.392 2.944zm8.784 3.824v-.512h-.752a.219.219 0 01-.224-.224v-2.736c.544.24 1.152.352 1.84.352 1.92 0 3.184-1.456 3.184-3.648 0-2.24-1.024-3.648-2.656-3.648-1.04 0-1.824.56-2.272 1.632h-.096v-1.536c-.368.048-1.328.096-2.064.096H102.4v.512h.672c.128 0 .224.096.224.224v8.752a.219.219 0 01-.224.224h-.672v.512h4.144zm.128-3.808c-.384 0-.784-.112-1.104-.32v-1.84c0-1.92.592-3.312 1.456-3.312.736 0 1.232 1.072 1.232 2.624 0 1.792-.592 2.848-1.584 2.848zm11.12.688c1.888 0 3.104-.912 3.104-2.32 0-1.008-.464-1.664-1.424-2.016L118 96.012c-.48-.16-.752-.512-.752-.912 0-.544.384-.896 1.024-.896.656 0 1.04.368 1.104 1.024l.064.512h.864c0-.56.064-1.104.16-1.712-.976-.304-1.728-.432-2.432-.432-1.584 0-2.672.928-2.672 2.288 0 .992.416 1.6 1.296 1.904l1.52.576c.528.176.8.496.8.912 0 .64-.496 1.04-1.28 1.04-.752 0-1.216-.384-1.296-1.056l-.064-.608h-.88c0 .528-.048 1.04-.16 1.808.832.272 1.76.432 2.496.432zm7.76 0c1.664 0 2.784-.768 3.264-2.192l-.48-.16c-.336 1.024-1.104 1.616-2.064 1.616-1.232 0-1.936-.992-2-2.8h4.464a8.11 8.11 0 00.048-.8c0-1.888-1.088-2.96-3.024-2.96-2.288 0-3.84 1.488-3.84 3.664 0 2.16 1.456 3.632 3.632 3.632zm1.088-4.08h-2.368c.064-1.52.592-2.512 1.424-2.512.624 0 .992.608.992 1.648 0 .24-.016.544-.048.864zm7.824 3.888v-.512h-1.04a.219.219 0 01-.224-.224V98.06c0-1.92.4-3.024 1.12-3.024.336 0 .576.24.576.736 0 .16-.048.432-.096.56.176.176.592.272.96.272.736 0 1.168-.48 1.168-1.376 0-.976-.592-1.632-1.52-1.632-1.024 0-1.776.656-2.128 1.872h-.08v-1.776c-.384.048-1.36.096-2.096.096h-1.072v.512h.656c.128 0 .224.096.224.224v5.456c0 .112-.096.208-.224.208h-.656v.512h4.432zm5.152-7.952c.736 0 1.312-.576 1.312-1.312 0-.736-.576-1.312-1.312-1.312-.736 0-1.312.576-1.312 1.312 0 .736.576 1.312 1.312 1.312zm2.048 7.952v-.512h-.608c-.208 0-.288-.096-.288-.304v-6.192c-.384.048-1.44.096-2.384.096h-.784v.512h.576c.224 0 .304.096.304.304v5.28c0 .208-.08.304-.304.304h-.576v.512h4.064zm5.472 0v-.512h-1.04c-.128 0-.256-.096-.256-.192V94.3h1.6v-.512h-1.6V91.9c0-.672.224-1.04.624-1.04.32 0 .544.256.544.64 0 .368-.08.704-.272 1.088.24.224.656.368 1.056.368.576 0 .928-.4.928-1.088 0-1.088-.752-1.728-2.016-1.728-1.84 0-2.912 1.216-3.12 3.648h-.896v.512h.656c.128 0 .224.096.224.224v5.44a.219.219 0 01-.224.224h-.656v.512h4.448zm3.536.192c1.888 0 3.104-.912 3.104-2.32 0-1.008-.464-1.664-1.424-2.016l-1.472-.544c-.48-.16-.752-.512-.752-.912 0-.544.384-.896 1.024-.896.656 0 1.04.368 1.104 1.024l.064.512h.864c0-.56.064-1.104.16-1.712-.976-.304-1.728-.432-2.432-.432-1.584 0-2.672.928-2.672 2.288 0 .992.416 1.6 1.296 1.904l1.52.576c.528.176.8.496.8.912 0 .64-.496 1.04-1.28 1.04-.752 0-1.216-.384-1.296-1.056l-.064-.608h-.88c0 .528-.048 1.04-.16 1.808.832.272 1.76.432 2.496.432z" fill="#156452" fill-rule="nonzero"/><path stroke="#156452" stroke-linecap="square" d="M164.36 85.7l106-9"/></g></svg>