<svg viewBox="0 0 434 434" xmlns="http://www.w3.org/2000/svg"><g fill="none" fill-rule="evenodd"><path d="M239.9 68c22.08 0 34.96 11.96 34.96 32.66 0 17.02-9.2 27.6-25.3 27.6-7.82 0-16.56-2.3-20.7-5.52 1.84-3.68 2.3-7.82 2.3-10.58 0-8.74-4.14-13.34-11.96-13.34-8.28 0-15.18 7.36-21.16 22.08 31.74 10.12 52.9 32.66 52.9 64.86 0 43.7-40.02 69.92-94.76 69.92h-24.84c-15.64 0-24.84 5.98-24.84 16.1 0 11.5 7.36 16.56 22.08 16.56h66.24c43.7 0 69.46 21.62 69.46 58.42 0 44.16-51.06 77.28-117.3 77.28-58.88 0-97.98-23-97.98-58.42 0-12.88 5.98-25.76 17.02-38.18-7.36-8.28-11.5-19.32-11.5-32.2 0-26.22 16.1-43.7 44.62-47.84v-4.14c-23-11.5-36.8-31.28-36.8-57.5 0-44.62 39.56-70.84 93.84-70.84 11.04 0 21.62.92 31.28 3.22C195.28 85.94 214.14 68 239.9 68zm-138 276.46c-.46 3.22-.92 6.44-.92 9.66 0 31.28 17.94 48.76 49.68 48.76 34.96 0 67.62-19.32 67.62-40.02 0-12.42-7.36-17.48-23.46-17.48h-81.88c-3.68 0-7.82-.46-11.04-.92zm54.28-207c-14.72 0-23.92 18.4-23.92 48.3 0 29.44 9.2 47.38 23.92 47.38 14.72 0 24.84-17.94 24.84-47.38 0-30.36-10.12-48.3-24.84-48.3z" fill="#595959" fill-rule="nonzero"/><path d="M239.9 68c22.08 0 34.96 11.96 34.96 32.66 0 17.02-9.2 27.6-25.3 27.6-7.82 0-16.56-2.3-20.7-5.52 1.84-3.68 2.3-7.82 2.3-10.58 0-8.74-4.14-13.34-11.96-13.34-8.28 0-15.18 7.36-21.16 22.08 27.176 8.665 46.596 26.435 51.62 51.578a74.378 74.378 0 01-19.87 2.682c-22.9 0-43.305-10.32-56.492-26.406-1.202-2.051-2.53-3.837-3.97-5.346-5.651-8.413-9.467-18.08-10.903-28.474 10.23.118 20.032 1.062 29.035 3.206C195.28 85.94 214.14 68 239.9 68z" fill="#000" fill-rule="nonzero"/><ellipse style="mix-blend-mode:multiply" cx="72" cy="69.5" rx="72" ry="69.5" transform="translate(157.79 36.16)" fill="#E7E7E7" fill-opacity=".9"/><path d="M293.686 17.352c2.128 0 3.552-1.184 3.552-2.992 0-1.136-.672-2.064-1.984-2.688l-1.76-.832c-1.056-.528-1.424-1.008-1.424-1.728 0-.848.624-1.424 1.568-1.424 1.184 0 1.984.88 2.112 2.288h.832V6.984h-.624l-.016.272c-.016.224-.096.336-.256.336-.384 0-.848-.704-2.32-.704-2.096 0-3.328 1.248-3.328 2.912 0 1.2.672 2.112 1.888 2.704l1.744.848c.944.432 1.552.912 1.552 1.712 0 .768-.512 1.488-1.824 1.488-1.216 0-2.448-.72-2.608-2.288h-.832v2.896h.624l.016-.224c.016-.24.112-.336.272-.336.432 0 1.184.752 2.816.752zm8.448 0c2.16 0 3.744-1.328 3.744-3.648 0-2.32-1.584-3.648-3.744-3.648-2.192 0-3.744 1.328-3.744 3.648 0 2.32 1.568 3.648 3.744 3.648zm0-.704c-.816 0-1.392-1.056-1.392-2.944s.576-2.944 1.392-2.944c.8 0 1.392 1.056 1.392 2.944s-.592 2.944-1.392 2.944zm9.28.512v-.512h-1.04c-.128 0-.256-.096-.256-.192V10.76h1.6v-.512h-1.6V8.36c0-.672.224-1.04.624-1.04.32 0 .544.256.544.64 0 .368-.08.704-.272 1.088.24.224.656.368 1.056.368.576 0 .928-.4.928-1.088 0-1.088-.752-1.728-2.016-1.728-1.84 0-2.912 1.216-3.12 3.648h-.896v.512h.656c.128 0 .224.096.224.224v5.44a.219.219 0 01-.224.224h-.656v.512h4.448zm3.488.192c1.024 0 1.664-.528 1.664-1.376a3.92 3.92 0 00-.064-.608l-.528.08c.016.128.032.24.032.368 0 .32-.16.576-.384.576s-.352-.208-.352-.576V10.76h1.472v-.512h-1.472V8.584h-1.104c-.096 1.056-.688 1.664-1.584 1.664h-.48v.512h.688c.112 0 .224.096.224.224v4.176c0 1.424.672 2.192 1.888 2.192zm9.712 0c1.664 0 2.784-.768 3.264-2.192l-.48-.16c-.336 1.024-1.104 1.616-2.064 1.616-1.232 0-1.936-.992-2-2.8h4.464a8.11 8.11 0 00.048-.8c0-1.888-1.088-2.96-3.024-2.96-2.288 0-3.84 1.488-3.84 3.664 0 2.16 1.456 3.632 3.632 3.632zm1.088-4.08h-2.368c.064-1.52.592-2.512 1.424-2.512.624 0 .992.608.992 1.648 0 .24-.016.544-.048.864zm9.264 4.08c1.088 0 1.792-.544 1.792-1.376 0-.16-.032-.4-.064-.576l-.512.08c.032.144.032.256.032.384 0 .336-.176.576-.416.576s-.368-.224-.368-.608v-2.784c0-1.984-.976-2.992-2.944-2.992-1.744 0-2.88.768-2.88 1.952 0 .608.336.912.928.912.4 0 .736-.112 1.104-.416-.096-.192-.144-.448-.144-.736 0-.656.304-1.024.848-1.024.656 0 .88.56.88 2.56v.064a12.852 12.852 0 00-.8-.032c-2.112 0-3.328.848-3.328 2.352 0 1.008.736 1.664 1.84 1.664 1.12 0 1.984-.72 2.368-1.968h.08c0 1.264.56 1.968 1.584 1.968zm-3.088-1.104c-.464 0-.736-.288-.736-.848 0-.896.752-1.392 2.064-1.392-.112 1.472-.576 2.24-1.328 2.24zm10.064.912v-.512h-1.04a.219.219 0 01-.224-.224V14.52c0-1.92.4-3.024 1.12-3.024.336 0 .576.24.576.736 0 .16-.048.432-.096.56.176.176.592.272.96.272.736 0 1.168-.48 1.168-1.376 0-.976-.592-1.632-1.52-1.632-1.024 0-1.776.656-2.128 1.872h-.08v-1.776c-.384.048-1.36.096-2.096.096h-1.072v.512h.656c.128 0 .224.096.224.224v5.456c0 .112-.096.208-.224.208h-.656v.512h4.432z" fill="#156452" fill-rule="nonzero"/><path stroke="#156452" stroke-linecap="square" d="M311.29 26.66l-62 67"/></g></svg>