<svg viewBox="0 0 423 421" xmlns="http://www.w3.org/2000/svg"><g fill="none" fill-rule="evenodd"><path fill-opacity=".5" fill="#000" opacity=".1" d="M7.325 97.647L330.31 5.033l92.614 322.984L99.94 420.63z"/><path fill="#F7F7F7" d="M.352 98.635L321.67.4l98.237 321.318L98.59 419.954z"/><g opacity=".2" stroke="#595959"><g transform="rotate(-17 201.397 -927.923)"><ellipse cx="34.675" cy="8" rx="3.325" ry="3.294"/><ellipse cx="34.675" cy="8" rx="3.325" ry="3.294"/><rect x="2.85" y="3.765" width="23.75" height="8.471" rx="4.235"/><path d="M0 14.118c3.673 0 6.65-2.74 6.65-6.118 0-3.379-2.977-6.118-6.65-6.118m34.2 12.236c-3.673 0-6.65-2.74-6.65-6.118 0-3.379 2.977-6.118 6.65-6.118"/><ellipse cx="10.925" cy="8" rx="8.075" ry="8"/><ellipse cx="23.275" cy="8" rx="8.075" ry="8"/></g><g transform="rotate(-17 455.66 -965.923)"><ellipse cx="34.675" cy="8.5" rx="3.325" ry="3.5"/><ellipse cx="34.675" cy="8.5" rx="3.325" ry="3.5"/><rect x="2.85" y="4" width="23.75" height="9" rx="4.5"/><path d="M0 15c3.673 0 6.65-2.91 6.65-6.5S3.673 2 0 2m34.2 13c-3.673 0-6.65-2.91-6.65-6.5S30.527 2 34.2 2"/><ellipse cx="10.925" cy="8.5" rx="8.075" ry="8.5"/><ellipse cx="23.275" cy="8.5" rx="8.075" ry="8.5"/></g><g transform="rotate(-17 706.579 -1003.423)"><ellipse cx="34.675" cy="8.5" rx="3.325" ry="3.5"/><ellipse cx="34.675" cy="8.5" rx="3.325" ry="3.5"/><rect x="2.85" y="4" width="23.75" height="9" rx="4.5"/><path d="M0 15c3.673 0 6.65-2.91 6.65-6.5S3.673 2 0 2m34.2 13c-3.673 0-6.65-2.91-6.65-6.5S30.527 2 34.2 2"/><ellipse cx="10.925" cy="8.5" rx="8.075" ry="8.5"/><ellipse cx="23.275" cy="8.5" rx="8.075" ry="8.5"/></g><g transform="rotate(-17 960.843 -1041.423)"><ellipse cx="34.675" cy="8.5" rx="3.325" ry="3.5"/><ellipse cx="34.675" cy="8.5" rx="3.325" ry="3.5"/><rect x="2.85" y="4" width="23.75" height="9" rx="4.5"/><path d="M0 15c3.673 0 6.65-2.91 6.65-6.5S3.673 2 0 2m34.2 13c-3.673 0-6.65-2.91-6.65-6.5S30.527 2 34.2 2"/><ellipse cx="10.925" cy="8.5" rx="8.075" ry="8.5"/><ellipse cx="23.275" cy="8.5" rx="8.075" ry="8.5"/></g><g transform="rotate(-17 328.529 -946.923)"><ellipse cx="34.675" cy="8.5" rx="3.325" ry="3.5"/><ellipse cx="34.675" cy="8.5" rx="3.325" ry="3.5"/><rect x="2.85" y="4" width="23.75" height="9" rx="4.5"/><path d="M0 15c3.673 0 6.65-2.91 6.65-6.5S3.673 2 0 2m34.2 13c-3.673 0-6.65-2.91-6.65-6.5S30.527 2 34.2 2"/><ellipse cx="10.925" cy="8.5" rx="8.075" ry="8.5"/><ellipse cx="23.275" cy="8.5" rx="8.075" ry="8.5"/></g><g transform="rotate(-17 582.792 -984.923)"><ellipse cx="34.675" cy="8.5" rx="3.325" ry="3.5"/><ellipse cx="34.675" cy="8.5" rx="3.325" ry="3.5"/><rect x="2.85" y="4" width="23.75" height="9" rx="4.5"/><path d="M0 15c3.673 0 6.65-2.91 6.65-6.5S3.673 2 0 2m34.2 13c-3.673 0-6.65-2.91-6.65-6.5S30.527 2 34.2 2"/><ellipse cx="10.925" cy="8.5" rx="8.075" ry="8.5"/><ellipse cx="23.275" cy="8.5" rx="8.075" ry="8.5"/></g><g transform="rotate(-17 833.71 -1022.423)"><ellipse cx="34.675" cy="8.5" rx="3.325" ry="3.5"/><ellipse cx="34.675" cy="8.5" rx="3.325" ry="3.5"/><rect x="2.85" y="4" width="23.75" height="9" rx="4.5"/><path d="M0 15c3.673 0 6.65-2.91 6.65-6.5S3.673 2 0 2m34.2 13c-3.673 0-6.65-2.91-6.65-6.5S30.527 2 34.2 2"/><ellipse cx="10.925" cy="8.5" rx="8.075" ry="8.5"/><ellipse cx="23.275" cy="8.5" rx="8.075" ry="8.5"/></g><g transform="rotate(-17 1091.32 -1060.923)"><ellipse cx="34.675" cy="8" rx="3.325" ry="3.294"/><ellipse cx="34.675" cy="8" rx="3.325" ry="3.294"/><rect x="2.85" y="3.765" width="23.75" height="8.471" rx="4.235"/><path d="M0 14.118c3.673 0 6.65-2.74 6.65-6.118 0-3.379-2.977-6.118-6.65-6.118m34.2 12.236c-3.673 0-6.65-2.74-6.65-6.118 0-3.379 2.977-6.118 6.65-6.118"/><ellipse cx="10.925" cy="8" rx="8.075" ry="8"/><ellipse cx="23.275" cy="8" rx="8.075" ry="8"/></g><g transform="rotate(163 160.294 44.76)"><ellipse cx="34.675" cy="8" rx="3.325" ry="3.294"/><ellipse cx="34.675" cy="8" rx="3.325" ry="3.294"/><rect x="2.85" y="3.765" width="23.75" height="8.471" rx="4.235"/><path d="M0 14.118c3.673 0 6.65-2.74 6.65-6.118 0-3.379-2.977-6.118-6.65-6.118m34.2 12.236c-3.673 0-6.65-2.74-6.65-6.118 0-3.379 2.977-6.118 6.65-6.118"/><ellipse cx="10.925" cy="8" rx="8.075" ry="8"/><ellipse cx="23.275" cy="8" rx="8.075" ry="8"/></g><g transform="rotate(163 165.974 82.76)"><ellipse cx="34.675" cy="8" rx="3.325" ry="3.294"/><ellipse cx="34.675" cy="8" rx="3.325" ry="3.294"/><rect x="2.85" y="3.765" width="23.75" height="8.471" rx="4.235"/><path d="M0 14.118c3.673 0 6.65-2.74 6.65-6.118 0-3.379-2.977-6.118-6.65-6.118m34.2 12.236c-3.673 0-6.65-2.74-6.65-6.118 0-3.379 2.977-6.118 6.65-6.118"/><ellipse cx="10.925" cy="8" rx="8.075" ry="8"/><ellipse cx="23.275" cy="8" rx="8.075" ry="8"/></g><g transform="rotate(163 171.653 120.76)"><ellipse cx="34.675" cy="8" rx="3.325" ry="3.294"/><ellipse cx="34.675" cy="8" rx="3.325" ry="3.294"/><rect x="2.85" y="3.765" width="23.75" height="8.471" rx="4.235"/><path d="M0 14.118c3.673 0 6.65-2.74 6.65-6.118 0-3.379-2.977-6.118-6.65-6.118m34.2 12.236c-3.673 0-6.65-2.74-6.65-6.118 0-3.379 2.977-6.118 6.65-6.118"/><ellipse cx="10.925" cy="8" rx="8.075" ry="8"/><ellipse cx="23.275" cy="8" rx="8.075" ry="8"/></g><g transform="rotate(163 177.332 158.76)"><ellipse cx="34.675" cy="8" rx="3.325" ry="3.294"/><ellipse cx="34.675" cy="8" rx="3.325" ry="3.294"/><rect x="2.85" y="3.765" width="23.75" height="8.471" rx="4.235"/><path d="M0 14.118c3.673 0 6.65-2.74 6.65-6.118 0-3.379-2.977-6.118-6.65-6.118m34.2 12.236c-3.673 0-6.65-2.74-6.65-6.118 0-3.379 2.977-6.118 6.65-6.118"/><ellipse cx="10.925" cy="8" rx="8.075" ry="8"/><ellipse cx="23.275" cy="8" rx="8.075" ry="8"/></g><g transform="rotate(163 163.134 63.76)"><ellipse cx="34.675" cy="8" rx="3.325" ry="3.294"/><ellipse cx="34.675" cy="8" rx="3.325" ry="3.294"/><rect x="2.85" y="3.765" width="23.75" height="8.471" rx="4.235"/><path d="M0 14.118c3.673 0 6.65-2.74 6.65-6.118 0-3.379-2.977-6.118-6.65-6.118m34.2 12.236c-3.673 0-6.65-2.74-6.65-6.118 0-3.379 2.977-6.118 6.65-6.118"/><ellipse cx="10.925" cy="8" rx="8.075" ry="8"/><ellipse cx="23.275" cy="8" rx="8.075" ry="8"/></g><g transform="rotate(163 168.813 101.76)"><ellipse cx="34.675" cy="8" rx="3.325" ry="3.294"/><ellipse cx="34.675" cy="8" rx="3.325" ry="3.294"/><rect x="2.85" y="3.765" width="23.75" height="8.471" rx="4.235"/><path d="M0 14.118c3.673 0 6.65-2.74 6.65-6.118 0-3.379-2.977-6.118-6.65-6.118m34.2 12.236c-3.673 0-6.65-2.74-6.65-6.118 0-3.379 2.977-6.118 6.65-6.118"/><ellipse cx="10.925" cy="8" rx="8.075" ry="8"/><ellipse cx="23.275" cy="8" rx="8.075" ry="8"/></g><g transform="rotate(163 174.492 139.76)"><ellipse cx="34.675" cy="8" rx="3.325" ry="3.294"/><ellipse cx="34.675" cy="8" rx="3.325" ry="3.294"/><rect x="2.85" y="3.765" width="23.75" height="8.471" rx="4.235"/><path d="M0 14.118c3.673 0 6.65-2.74 6.65-6.118 0-3.379-2.977-6.118-6.65-6.118m34.2 12.236c-3.673 0-6.65-2.74-6.65-6.118 0-3.379 2.977-6.118 6.65-6.118"/><ellipse cx="10.925" cy="8" rx="8.075" ry="8"/><ellipse cx="23.275" cy="8" rx="8.075" ry="8"/></g></g><g opacity=".2" transform="rotate(-17 1155.886 -1063.732)" stroke="#595959"><circle cx="35.5" cy="35.5" r="3.5"/><path d="M7.5 9a3.5 3.5 0 100-7 3.5 3.5 0 000 7z"/><circle cx="10.5" cy="31.5" r="4.5"/><circle cx="31.5" cy="9.5" r="4.5"/><circle cx="13.5" cy="13.5" r="9.5"/><circle cx="28.5" cy="27.5" r="9.5"/><path d="M22.757.858c-5.467 5.467-5.784 14.015-.707 19.092 5.077 5.077 13.625 4.76 19.092-.707M19.243 41.142c5.467-5.467 5.784-14.015.707-19.092-5.077-5.077-13.625-4.76-19.092.707"/><rect x="8" y="8" width="26" height="26" rx="8"/></g><g opacity=".2" stroke="#595959"><g transform="rotate(73 -19.044 391.039)"><ellipse cx="34.675" cy="8" rx="3.325" ry="3.294"/><ellipse cx="34.675" cy="8" rx="3.325" ry="3.294"/><rect x="2.85" y="3.765" width="23.75" height="8.471" rx="4.235"/><path d="M0 14.118c3.673 0 6.65-2.74 6.65-6.118 0-3.379-2.977-6.118-6.65-6.118m34.2 12.236c-3.673 0-6.65-2.74-6.65-6.118 0-3.379 2.977-6.118 6.65-6.118"/><ellipse cx="10.925" cy="8" rx="8.075" ry="8"/><ellipse cx="23.275" cy="8" rx="8.075" ry="8"/></g><g transform="rotate(73 -70.398 353.039)"><ellipse cx="34.675" cy="8.5" rx="3.325" ry="3.5"/><ellipse cx="34.675" cy="8.5" rx="3.325" ry="3.5"/><rect x="2.85" y="4" width="23.75" height="9" rx="4.5"/><path d="M0 15c3.673 0 6.65-2.91 6.65-6.5S3.673 2 0 2m34.2 13c-3.673 0-6.65-2.91-6.65-6.5S30.527 2 34.2 2"/><ellipse cx="10.925" cy="8.5" rx="8.075" ry="8.5"/><ellipse cx="23.275" cy="8.5" rx="8.075" ry="8.5"/></g><g transform="rotate(73 -121.076 315.539)"><ellipse cx="34.675" cy="8.5" rx="3.325" ry="3.5"/><ellipse cx="34.675" cy="8.5" rx="3.325" ry="3.5"/><rect x="2.85" y="4" width="23.75" height="9" rx="4.5"/><path d="M0 15c3.673 0 6.65-2.91 6.65-6.5S3.673 2 0 2m34.2 13c-3.673 0-6.65-2.91-6.65-6.5S30.527 2 34.2 2"/><ellipse cx="10.925" cy="8.5" rx="8.075" ry="8.5"/><ellipse cx="23.275" cy="8.5" rx="8.075" ry="8.5"/></g><g transform="rotate(73 -172.43 277.539)"><ellipse cx="34.675" cy="8.5" rx="3.325" ry="3.5"/><ellipse cx="34.675" cy="8.5" rx="3.325" ry="3.5"/><rect x="2.85" y="4" width="23.75" height="9" rx="4.5"/><path d="M0 15c3.673 0 6.65-2.91 6.65-6.5S3.673 2 0 2m34.2 13c-3.673 0-6.65-2.91-6.65-6.5S30.527 2 34.2 2"/><ellipse cx="10.925" cy="8.5" rx="8.075" ry="8.5"/><ellipse cx="23.275" cy="8.5" rx="8.075" ry="8.5"/></g><g transform="rotate(73 -44.721 372.039)"><ellipse cx="34.675" cy="8.5" rx="3.325" ry="3.5"/><ellipse cx="34.675" cy="8.5" rx="3.325" ry="3.5"/><rect x="2.85" y="4" width="23.75" height="9" rx="4.5"/><path d="M0 15c3.673 0 6.65-2.91 6.65-6.5S3.673 2 0 2m34.2 13c-3.673 0-6.65-2.91-6.65-6.5S30.527 2 34.2 2"/><ellipse cx="10.925" cy="8.5" rx="8.075" ry="8.5"/><ellipse cx="23.275" cy="8.5" rx="8.075" ry="8.5"/></g><g transform="rotate(73 -96.075 334.039)"><ellipse cx="34.675" cy="8.5" rx="3.325" ry="3.5"/><ellipse cx="34.675" cy="8.5" rx="3.325" ry="3.5"/><rect x="2.85" y="4" width="23.75" height="9" rx="4.5"/><path d="M0 15c3.673 0 6.65-2.91 6.65-6.5S3.673 2 0 2m34.2 13c-3.673 0-6.65-2.91-6.65-6.5S30.527 2 34.2 2"/><ellipse cx="10.925" cy="8.5" rx="8.075" ry="8.5"/><ellipse cx="23.275" cy="8.5" rx="8.075" ry="8.5"/></g><g transform="rotate(73 -146.753 296.539)"><ellipse cx="34.675" cy="8.5" rx="3.325" ry="3.5"/><ellipse cx="34.675" cy="8.5" rx="3.325" ry="3.5"/><rect x="2.85" y="4" width="23.75" height="9" rx="4.5"/><path d="M0 15c3.673 0 6.65-2.91 6.65-6.5S3.673 2 0 2m34.2 13c-3.673 0-6.65-2.91-6.65-6.5S30.527 2 34.2 2"/><ellipse cx="10.925" cy="8.5" rx="8.075" ry="8.5"/><ellipse cx="23.275" cy="8.5" rx="8.075" ry="8.5"/></g><g transform="rotate(73 -198.783 258.039)"><ellipse cx="34.675" cy="8" rx="3.325" ry="3.294"/><ellipse cx="34.675" cy="8" rx="3.325" ry="3.294"/><rect x="2.85" y="3.765" width="23.75" height="8.471" rx="4.235"/><path d="M0 14.118c3.673 0 6.65-2.74 6.65-6.118 0-3.379-2.977-6.118-6.65-6.118m34.2 12.236c-3.673 0-6.65-2.74-6.65-6.118 0-3.379 2.977-6.118 6.65-6.118"/><ellipse cx="10.925" cy="8" rx="8.075" ry="8"/><ellipse cx="23.275" cy="8" rx="8.075" ry="8"/></g><g transform="rotate(-107 295.404 45.651)"><ellipse cx="34.675" cy="8" rx="3.325" ry="3.294"/><ellipse cx="34.675" cy="8" rx="3.325" ry="3.294"/><rect x="2.85" y="3.765" width="23.75" height="8.471" rx="4.235"/><path d="M0 14.118c3.673 0 6.65-2.74 6.65-6.118 0-3.379-2.977-6.118-6.65-6.118m34.2 12.236c-3.673 0-6.65-2.74-6.65-6.118 0-3.379 2.977-6.118 6.65-6.118"/><ellipse cx="10.925" cy="8" rx="8.075" ry="8"/><ellipse cx="23.275" cy="8" rx="8.075" ry="8"/></g><g transform="rotate(-107 267.286 83.651)"><ellipse cx="34.675" cy="8" rx="3.325" ry="3.294"/><ellipse cx="34.675" cy="8" rx="3.325" ry="3.294"/><rect x="2.85" y="3.765" width="23.75" height="8.471" rx="4.235"/><path d="M0 14.118c3.673 0 6.65-2.74 6.65-6.118 0-3.379-2.977-6.118-6.65-6.118m34.2 12.236c-3.673 0-6.65-2.74-6.65-6.118 0-3.379 2.977-6.118 6.65-6.118"/><ellipse cx="10.925" cy="8" rx="8.075" ry="8"/><ellipse cx="23.275" cy="8" rx="8.075" ry="8"/></g><g transform="rotate(-107 239.167 121.651)"><ellipse cx="34.675" cy="8" rx="3.325" ry="3.294"/><ellipse cx="34.675" cy="8" rx="3.325" ry="3.294"/><rect x="2.85" y="3.765" width="23.75" height="8.471" rx="4.235"/><path d="M0 14.118c3.673 0 6.65-2.74 6.65-6.118 0-3.379-2.977-6.118-6.65-6.118m34.2 12.236c-3.673 0-6.65-2.74-6.65-6.118 0-3.379 2.977-6.118 6.65-6.118"/><ellipse cx="10.925" cy="8" rx="8.075" ry="8"/><ellipse cx="23.275" cy="8" rx="8.075" ry="8"/></g><g transform="rotate(-107 211.049 159.651)"><ellipse cx="34.675" cy="8" rx="3.325" ry="3.294"/><ellipse cx="34.675" cy="8" rx="3.325" ry="3.294"/><rect x="2.85" y="3.765" width="23.75" height="8.471" rx="4.235"/><path d="M0 14.118c3.673 0 6.65-2.74 6.65-6.118 0-3.379-2.977-6.118-6.65-6.118m34.2 12.236c-3.673 0-6.65-2.74-6.65-6.118 0-3.379 2.977-6.118 6.65-6.118"/><ellipse cx="10.925" cy="8" rx="8.075" ry="8"/><ellipse cx="23.275" cy="8" rx="8.075" ry="8"/></g><g transform="rotate(-107 281.345 64.651)"><ellipse cx="34.675" cy="8" rx="3.325" ry="3.294"/><ellipse cx="34.675" cy="8" rx="3.325" ry="3.294"/><rect x="2.85" y="3.765" width="23.75" height="8.471" rx="4.235"/><path d="M0 14.118c3.673 0 6.65-2.74 6.65-6.118 0-3.379-2.977-6.118-6.65-6.118m34.2 12.236c-3.673 0-6.65-2.74-6.65-6.118 0-3.379 2.977-6.118 6.65-6.118"/><ellipse cx="10.925" cy="8" rx="8.075" ry="8"/><ellipse cx="23.275" cy="8" rx="8.075" ry="8"/></g><g transform="rotate(-107 253.227 102.651)"><ellipse cx="34.675" cy="8" rx="3.325" ry="3.294"/><ellipse cx="34.675" cy="8" rx="3.325" ry="3.294"/><rect x="2.85" y="3.765" width="23.75" height="8.471" rx="4.235"/><path d="M0 14.118c3.673 0 6.65-2.74 6.65-6.118 0-3.379-2.977-6.118-6.65-6.118m34.2 12.236c-3.673 0-6.65-2.74-6.65-6.118 0-3.379 2.977-6.118 6.65-6.118"/><ellipse cx="10.925" cy="8" rx="8.075" ry="8"/><ellipse cx="23.275" cy="8" rx="8.075" ry="8"/></g><g transform="rotate(-107 225.108 140.651)"><ellipse cx="34.675" cy="8" rx="3.325" ry="3.294"/><ellipse cx="34.675" cy="8" rx="3.325" ry="3.294"/><rect x="2.85" y="3.765" width="23.75" height="8.471" rx="4.235"/><path d="M0 14.118c3.673 0 6.65-2.74 6.65-6.118 0-3.379-2.977-6.118-6.65-6.118m34.2 12.236c-3.673 0-6.65-2.74-6.65-6.118 0-3.379 2.977-6.118 6.65-6.118"/><ellipse cx="10.925" cy="8" rx="8.075" ry="8"/><ellipse cx="23.275" cy="8" rx="8.075" ry="8"/></g></g><path stroke="#595959" stroke-width=".5" opacity=".4" d="M275.317 19.799l82.449 269.678-269.678 82.448"/><text transform="rotate(-62 287.557 204.865)" font-family="Arapey-Extralight, Arapey" font-size="16" font-weight="300" fill="#B30C00"><tspan x="207.4" y="250.276">Restaurant</tspan></text><text transform="rotate(-62 271.68 190.64)" font-family="Arapey-Black, Arapey" font-size="45" font-weight="700" fill="#B30C00"><tspan x="160.832" y="239.184">Salto!</tspan></text></g></svg>