<svg viewBox="0 0 434 434" xmlns="http://www.w3.org/2000/svg"><g fill="none" fill-rule="evenodd"><path d="M175.08 319.24v-16.56h-29.9c-3.68 0-6.44-2.76-6.44-6.44v-52.9c0-52.44 10.12-80.96 28.98-80.96 9.2 0 15.64 6.9 15.64 21.62 0 5.52-1.38 14.26-3.68 18.86 5.98 5.06 19.78 8.74 31.74 8.74 24.38 0 39.1-16.56 39.1-45.54 0-30.82-18.4-51.06-46.92-51.06-30.36 0-52.44 17.94-62.56 51.06h-2.3v-48.3c-11.84 1.366-42.165 2.732-65.088 2.76H38v16.56h18.4c3.68 0 6.44 2.76 6.44 6.44V296.7c0 3.22-2.76 5.98-6.44 5.98H38v16.56h137.08z" fill="#595959" fill-rule="nonzero"/><path d="M138.744 241.49c-.003.614-.004 1.23-.004 1.85v52.9c0 3.68 2.76 6.44 6.44 6.44h29.9v16.56l-101.647.001a67.795 67.795 0 0 1-.533-8.501c0-36.08 28.483-65.74 64.929-69.17z" fill="#000" fill-rule="nonzero"/><ellipse style="mix-blend-mode:multiply" cx="72" cy="69.5" rx="72" ry="69.5" transform="translate(72.9 241.24)" fill="#E7E7E7" fill-opacity=".9"/><path d="M257.776 324.24v-.512h-1.088l.896-2.608h3.44l.96 2.608h-.944v.512h3.952v-.512h-.448c-.176 0-.256-.096-.304-.224l-3.456-9.344h-1.648l-3.216 9.344c-.048.128-.128.224-.304.224h-.464v.512h2.624zm3.024-3.76h-3.008l1.456-4.24 1.552 4.24zm7.408 3.952c1.888 0 3.104-.912 3.104-2.32 0-1.008-.464-1.664-1.424-2.016l-1.472-.544c-.48-.16-.752-.512-.752-.912 0-.544.384-.896 1.024-.896.656 0 1.04.368 1.104 1.024l.064.512h.864c0-.56.064-1.104.16-1.712-.976-.304-1.728-.432-2.432-.432-1.584 0-2.672.928-2.672 2.288 0 .992.416 1.6 1.296 1.904l1.52.576c.528.176.8.496.8.912 0 .64-.496 1.04-1.28 1.04-.752 0-1.216-.384-1.296-1.056l-.064-.608h-.88c0 .528-.048 1.04-.16 1.808.832.272 1.76.432 2.496.432zm6.064 3.456c.704 0 1.12-.48 1.712-2.112l2.928-7.712c.064-.16.128-.224.224-.224h.448v-.512h-2.224v.512h.8l-1.552 4.112-1.616-4.112h.752v-.512h-3.776v.512h.48c.128 0 .176.096.224.224l2.688 6.608c-.64.752-1.568 1.376-2.56 1.648.208.848.912 1.568 1.472 1.568zm9.952-3.648v-.512h-.448c-.208 0-.288-.096-.288-.288v-2.272c0-1.648.512-2.672 1.376-2.672.56 0 .816.416.816 1.312v3.632c0 .192-.096.288-.304.288h-.416v.512h3.728v-.512h-.432c-.224 0-.304-.096-.304-.288v-2.272c0-1.648.512-2.672 1.376-2.672.56 0 .832.416.832 1.312v3.632c0 .192-.096.288-.304.288h-.448v.512h3.824v-.512h-.496c-.224 0-.304-.096-.304-.288v-3.984c0-1.472-.688-2.32-1.92-2.32-1.264 0-2.144.576-2.56 1.696h-.048c-.176-1.088-.832-1.696-1.872-1.696-1.216 0-2.08.576-2.464 1.696h-.08v-1.6c-.352.048-1.264.096-1.984.096h-1.184v.512h.656c.128 0 .224.096.224.224v5.376c0 .192-.08.288-.288.288h-.592v.512h3.904zm13.93 0v-.512h-.448c-.208 0-.288-.096-.288-.288v-2.272c0-1.648.512-2.672 1.376-2.672.56 0 .816.416.816 1.312v3.632c0 .192-.096.288-.304.288h-.416v.512h3.728v-.512h-.432c-.224 0-.304-.096-.304-.288v-2.272c0-1.648.512-2.672 1.376-2.672.56 0 .832.416.832 1.312v3.632c0 .192-.096.288-.304.288h-.448v.512h3.824v-.512h-.496c-.224 0-.304-.096-.304-.288v-3.984c0-1.472-.688-2.32-1.92-2.32-1.264 0-2.144.576-2.56 1.696h-.048c-.176-1.088-.832-1.696-1.872-1.696-1.216 0-2.08.576-2.464 1.696h-.08v-1.6c-.352.048-1.264.096-1.984.096h-1.184v.512h.656c.128 0 .224.096.224.224v5.376c0 .192-.08.288-.288.288h-.592v.512h3.904zm13.59.192c1.664 0 2.784-.768 3.264-2.192l-.48-.16c-.336 1.024-1.104 1.616-2.064 1.616-1.232 0-1.936-.992-2-2.8h4.464a8.11 8.11 0 0 0 .048-.8c0-1.888-1.088-2.96-3.024-2.96-2.288 0-3.84 1.488-3.84 3.664 0 2.16 1.456 3.632 3.632 3.632zm1.088-4.08h-2.368c.064-1.52.592-2.512 1.424-2.512.624 0 .992.608.992 1.648 0 .24-.016.544-.048.864zm5.888 4.08c1.024 0 1.664-.528 1.664-1.376a3.92 3.92 0 0 0-.064-.608l-.528.08c.016.128.032.24.032.368 0 .32-.16.576-.384.576s-.352-.208-.352-.576v-5.056h1.472v-.512h-1.472v-1.664h-1.104c-.096 1.056-.688 1.664-1.584 1.664h-.48v.512h.688c.112 0 .224.096.224.224v4.176c0 1.424.672 2.192 1.888 2.192zm7.072-.192v-.512h-1.04a.219.219 0 0 1-.224-.224V321.6c0-1.92.4-3.024 1.12-3.024.336 0 .576.24.576.736 0 .16-.048.432-.096.56.176.176.592.272.96.272.736 0 1.168-.48 1.168-1.376 0-.976-.592-1.632-1.52-1.632-1.024 0-1.776.656-2.128 1.872h-.08v-1.776c-.384.048-1.36.096-2.096.096h-1.072v.512h.656c.128 0 .224.096.224.224v5.456c0 .112-.096.208-.224.208h-.656v.512h4.432zm5.152-7.952c.736 0 1.312-.576 1.312-1.312 0-.736-.576-1.312-1.312-1.312-.736 0-1.312.576-1.312 1.312 0 .736.576 1.312 1.312 1.312zm2.048 7.952v-.512h-.608c-.208 0-.288-.096-.288-.304v-6.192c-.354.044-1.282.089-2.165.095l-1.003.001v.512h.576c.224 0 .304.096.304.304v5.28c0 .208-.08.304-.304.304h-.576v.512h4.064zm4.384.192c1.6 0 2.704-.736 3.152-2.112l-.528-.208c-.304.976-.96 1.552-1.84 1.552-1.216 0-1.92-1.12-1.92-3.04 0-1.68.56-2.8 1.408-2.8.512 0 .848.464.848 1.168 0 .368-.096.736-.272 1.12.24.224.656.368 1.072.368.672 0 1.024-.432 1.024-1.232 0-1.344-.976-2.112-2.656-2.112-2.272 0-3.776 1.472-3.776 3.696 0 2.176 1.376 3.6 3.488 3.6zm10.224 0c1.888 0 3.104-.912 3.104-2.32 0-1.008-.464-1.664-1.424-2.016l-1.472-.544c-.48-.16-.752-.512-.752-.912 0-.544.384-.896 1.024-.896.656 0 1.04.368 1.104 1.024l.064.512h.864c0-.56.064-1.104.16-1.712-.976-.304-1.728-.432-2.432-.432-1.584 0-2.672.928-2.672 2.288 0 .992.416 1.6 1.296 1.904l1.52.576c.528.176.8.496.8.912 0 .64-.496 1.04-1.28 1.04-.752 0-1.216-.384-1.296-1.056l-.064-.608h-.88c0 .528-.048 1.04-.16 1.808.832.272 1.76.432 2.496.432zm7.76 0c1.664 0 2.784-.768 3.264-2.192l-.48-.16c-.336 1.024-1.104 1.616-2.064 1.616-1.232 0-1.936-.992-2-2.8h4.464a8.11 8.11 0 0 0 .048-.8c0-1.888-1.088-2.96-3.024-2.96-2.288 0-3.84 1.488-3.84 3.664 0 2.16 1.456 3.632 3.632 3.632zm1.088-4.08h-2.368c.064-1.52.592-2.512 1.424-2.512.624 0 .992.608.992 1.648 0 .24-.016.544-.048.864zm7.824 3.888v-.512h-1.04a.219.219 0 0 1-.224-.224V321.6c0-1.92.4-3.024 1.12-3.024.336 0 .576.24.576.736 0 .16-.048.432-.096.56.176.176.592.272.96.272.736 0 1.168-.48 1.168-1.376 0-.976-.592-1.632-1.52-1.632-1.024 0-1.776.656-2.128 1.872h-.08v-1.776c-.384.048-1.36.096-2.096.096h-1.072v.512h.656c.128 0 .224.096.224.224v5.456c0 .112-.096.208-.224.208h-.656v.512h4.432zm5.152-7.952c.736 0 1.312-.576 1.312-1.312 0-.736-.576-1.312-1.312-1.312-.736 0-1.312.576-1.312 1.312 0 .736.576 1.312 1.312 1.312zm2.048 7.952v-.512h-.608c-.208 0-.288-.096-.288-.304v-6.192c-.354.044-1.282.089-2.165.095l-1.003.001v.512h.576c.224 0 .304.096.304.304v5.28c0 .208-.08.304-.304.304h-.576v.512h4.064zm5.472 0v-.512h-1.04c-.128 0-.256-.096-.256-.192v-5.696h1.6v-.512h-1.6v-1.888c0-.672.224-1.04.624-1.04.32 0 .544.256.544.64 0 .368-.08.704-.272 1.088.24.224.656.368 1.056.368.576 0 .928-.4.928-1.088 0-1.088-.752-1.728-2.016-1.728-1.84 0-2.912 1.216-3.12 3.648h-.896v.512h.656c.128 0 .224.096.224.224v5.44a.219.219 0 0 1-.224.224h-.656v.512h4.448zm8.16 0l1.36-4.544 1.424 4.544h1.328l1.984-6.176c.032-.128.08-.224.208-.224h.448v-.512h-2.144v.512h.704l-1.136 3.744-1.344-4.256h-1.52l-1.264 4.272-1.232-3.76h.704v-.512h-3.616v.512h.48c.128 0 .176.096.208.224l2.08 6.176h1.328zm9.488-7.952c.736 0 1.312-.576 1.312-1.312 0-.736-.576-1.312-1.312-1.312-.736 0-1.312.576-1.312 1.312 0 .736.576 1.312 1.312 1.312zm2.048 7.952v-.512h-.608c-.208 0-.288-.096-.288-.304v-6.192c-.354.044-1.282.089-2.165.095l-1.003.001v.512h.576c.224 0 .304.096.304.304v5.28c0 .208-.08.304-.304.304h-.576v.512h4.064zm3.52.192c1.024 0 1.664-.528 1.664-1.376a3.92 3.92 0 0 0-.064-.608l-.528.08c.016.128.032.24.032.368 0 .32-.16.576-.384.576s-.352-.208-.352-.576v-5.056H402v-.512h-1.472v-1.664h-1.104c-.096 1.056-.688 1.664-1.584 1.664h-.48v.512h.688c.112 0 .224.096.224.224v4.176c0 1.424.672 2.192 1.888 2.192zm6.4-.192v-.512h-.48c-.208 0-.304-.096-.304-.288v-2.272c0-1.648.528-2.672 1.424-2.672.64 0 .928.416.928 1.312v3.632c0 .192-.08.288-.288.288h-.48v.512h3.936v-.512h-.592c-.208 0-.304-.096-.304-.288v-3.984c0-1.472-.736-2.32-2.08-2.32-1.216 0-2.064.576-2.464 1.696h-.08v-5.056c-.384.048-1.328.096-2.032.096h-1.136v.512h.672c.128 0 .224.096.224.224v8.832c0 .192-.096.288-.304.288h-.592v.512h3.952zm-147.616 18.192c1.6 0 2.704-.736 3.152-2.112l-.528-.208c-.304.976-.96 1.552-1.84 1.552-1.216 0-1.92-1.12-1.92-3.04 0-1.68.56-2.8 1.408-2.8.512 0 .848.464.848 1.168 0 .368-.096.736-.272 1.12.24.224.656.368 1.072.368.672 0 1.024-.432 1.024-1.232 0-1.344-.976-2.112-2.656-2.112-2.272 0-3.776 1.472-3.776 3.696 0 2.176 1.376 3.6 3.488 3.6zm7.728 0c2.16 0 3.744-1.328 3.744-3.648 0-2.32-1.584-3.648-3.744-3.648-2.192 0-3.744 1.328-3.744 3.648 0 2.32 1.568 3.648 3.744 3.648zm0-.704c-.816 0-1.392-1.056-1.392-2.944s.576-2.944 1.392-2.944c.8 0 1.392 1.056 1.392 2.944s-.592 2.944-1.392 2.944zm8.736.512v-.512h-.448c-.208 0-.288-.096-.288-.288v-2.272c0-1.648.512-2.672 1.376-2.672.56 0 .816.416.816 1.312v3.632c0 .192-.096.288-.304.288h-.416v.512h3.728v-.512h-.432c-.224 0-.304-.096-.304-.288v-2.272c0-1.648.512-2.672 1.376-2.672.56 0 .832.416.832 1.312v3.632c0 .192-.096.288-.304.288h-.448v.512h3.824v-.512h-.496c-.224 0-.304-.096-.304-.288v-3.984c0-1.472-.688-2.32-1.92-2.32-1.264 0-2.144.576-2.56 1.696h-.048c-.176-1.088-.832-1.696-1.872-1.696-1.216 0-2.08.576-2.464 1.696h-.08v-1.6c-.352.048-1.264.096-1.984.096h-1.184v.512h.656c.128 0 .224.096.224.224v5.376c0 .192-.08.288-.288.288h-.592v.512h3.904zm13.968 3.312v-.512h-.752a.219.219 0 0 1-.224-.224v-2.736c.544.24 1.152.352 1.84.352 1.92 0 3.184-1.456 3.184-3.648 0-2.24-1.024-3.648-2.656-3.648-1.04 0-1.824.56-2.272 1.632h-.096v-1.536c-.368.048-1.328.096-2.064.096h-1.104v.512h.672c.128 0 .224.096.224.224v8.752a.219.219 0 0 1-.224.224h-.672v.512h4.144zm.128-3.808c-.384 0-.784-.112-1.104-.32v-1.84c0-1.92.592-3.312 1.456-3.312.736 0 1.232 1.072 1.232 2.624 0 1.792-.592 2.848-1.584 2.848zm8.512.688c1.664 0 2.784-.768 3.264-2.192l-.48-.16c-.336 1.024-1.104 1.616-2.064 1.616-1.232 0-1.936-.992-2-2.8h4.464a8.11 8.11 0 0 0 .048-.8c0-1.888-1.088-2.96-3.024-2.96-2.288 0-3.84 1.488-3.84 3.664 0 2.16 1.456 3.632 3.632 3.632zm1.088-4.08h-2.368c.064-1.52.592-2.512 1.424-2.512.624 0 .992.608.992 1.648 0 .24-.016.544-.048.864zm7.344 3.888v-.512h-.496c-.208 0-.288-.096-.288-.304v-2.256c0-1.648.544-2.672 1.424-2.672.64 0 .928.416.928 1.312v3.616c0 .208-.096.304-.304.304h-.496v.512h3.968v-.512h-.608c-.208 0-.288-.096-.288-.304v-3.968c0-1.472-.752-2.32-2.08-2.32-1.216 0-2.08.592-2.464 1.696h-.08v-1.6c-.496.048-1.6.096-2.384.096h-.784v.512h.576c.224 0 .304.096.304.304v5.28c0 .208-.08.304-.304.304h-.576v.512h3.952zm8.272.192c1.888 0 3.104-.912 3.104-2.32 0-1.008-.464-1.664-1.424-2.016l-1.472-.544c-.48-.16-.752-.512-.752-.912 0-.544.384-.896 1.024-.896.656 0 1.04.368 1.104 1.024l.064.512h.864c0-.56.064-1.104.16-1.712-.976-.304-1.728-.432-2.432-.432-1.584 0-2.672.928-2.672 2.288 0 .992.416 1.6 1.296 1.904l1.52.576c.528.176.8.496.8.912 0 .64-.496 1.04-1.28 1.04-.752 0-1.216-.384-1.296-1.056l-.064-.608h-.88c0 .528-.048 1.04-.16 1.808.832.272 1.76.432 2.496.432zm10.128 0c1.088 0 1.792-.544 1.792-1.376 0-.16-.032-.4-.064-.576l-.512.08c.032.144.032.256.032.384 0 .336-.176.576-.416.576s-.368-.224-.368-.608v-2.784c0-1.984-.976-2.992-2.944-2.992-1.744 0-2.88.768-2.88 1.952 0 .608.336.912.928.912.4 0 .736-.112 1.104-.416-.096-.192-.144-.448-.144-.736 0-.656.304-1.024.848-1.024.656 0 .88.56.88 2.56v.064a12.852 12.852 0 0 0-.8-.032c-2.112 0-3.328.848-3.328 2.352 0 1.008.736 1.664 1.84 1.664 1.12 0 1.984-.72 2.368-1.968h.08c0 1.264.56 1.968 1.584 1.968zm-3.088-1.104c-.464 0-.736-.288-.736-.848 0-.896.752-1.392 2.064-1.392-.112 1.472-.576 2.24-1.328 2.24zm8.128 1.104c1.024 0 1.664-.528 1.664-1.376a3.92 3.92 0 0 0-.064-.608l-.528.08c.016.128.032.24.032.368 0 .32-.16.576-.384.576s-.352-.208-.352-.576v-5.056h1.472v-.512h-1.472v-1.664h-1.104c-.096 1.056-.688 1.664-1.584 1.664h-.48v.512h.688c.112 0 .224.096.224.224v4.176c0 1.424.672 2.192 1.888 2.192zm6.144 0c1.664 0 2.784-.768 3.264-2.192l-.48-.16c-.336 1.024-1.104 1.616-2.064 1.616-1.232 0-1.936-.992-2-2.8h4.464a8.11 8.11 0 0 0 .048-.8c0-1.888-1.088-2.96-3.024-2.96-2.288 0-3.84 1.488-3.84 3.664 0 2.16 1.456 3.632 3.632 3.632zm1.088-4.08h-2.368c.064-1.52.592-2.512 1.424-2.512.624 0 .992.608.992 1.648 0 .24-.016.544-.048.864zm5.92 4.08c1.04 0 1.824-.56 2.288-1.632h.096v1.536c.416-.048 1.52-.096 2.368-.096h.8l-.016-.512h-.592c-.208 0-.288-.096-.288-.304v-9.536c-.37.044-1.297.089-2.168.095l-1.016.001v.512h.608c.192 0 .288.08.288.304l.016 2.704a4.496 4.496 0 0 0-1.84-.368c-1.936 0-3.2 1.456-3.2 3.648 0 2.24 1.024 3.648 2.656 3.648zm.912-1.136c-.72 0-1.216-1.072-1.216-2.624 0-1.792.56-2.848 1.568-2.848.368 0 .784.112 1.12.32v1.84c-.016 1.92-.608 3.312-1.472 3.312zm13.088.944v-.512h-.576c-.208 0-.304-.096-.304-.304v-9.536c-.354.044-1.282.089-2.165.095l-1.003.001v.512h.592c.208 0 .304.08.304.304v8.624c0 .208-.096.304-.304.304h-.592v.512h4.048zm4.528.192c1.664 0 2.784-.768 3.264-2.192l-.48-.16c-.336 1.024-1.104 1.616-2.064 1.616-1.232 0-1.936-.992-2-2.8h4.464a8.11 8.11 0 0 0 .048-.8c0-1.888-1.088-2.96-3.024-2.96-2.288 0-3.84 1.488-3.84 3.664 0 2.16 1.456 3.632 3.632 3.632zm1.088-4.08h-2.368c.064-1.52.592-2.512 1.424-2.512.624 0 .992.608.992 1.648 0 .24-.016.544-.048.864zM370 342.24v-.512h-.496c-.208 0-.288-.096-.288-.304v-2.256c0-1.648.544-2.672 1.424-2.672.64 0 .928.416.928 1.312v3.616c0 .208-.096.304-.304.304h-.496v.512h3.968v-.512h-.608c-.208 0-.288-.096-.288-.304v-3.968c0-1.472-.752-2.32-2.08-2.32-1.216 0-2.08.592-2.464 1.696h-.08v-1.6c-.496.048-1.6.096-2.384.096h-.784v.512h.576c.224 0 .304.096.304.304v5.28c0 .208-.08.304-.304.304h-.576v.512H370zm8.72 3.648c2.224 0 3.952-1.152 3.952-2.672 0-1.232-.864-1.92-2.416-1.92h-2.176c-.576 0-.864-.208-.864-.656 0-.4.368-.64.992-.64h.848c1.824 0 3.136-.912 3.136-2.432 0-1.04-.64-1.808-1.632-2.176.208-.512.448-.768.752-.768.272 0 .448.176.448.496 0 .08-.016.224-.064.336.112.096.4.16.64.16.496 0 .8-.32.8-.864 0-.704-.448-1.088-1.184-1.088-.832 0-1.44.576-1.712 1.616a4.707 4.707 0 0 0-1.184-.144c-1.824 0-3.136.912-3.136 2.432 0 .912.48 1.616 1.28 2.032v.128c-.992.144-1.552.72-1.552 1.616 0 .48.176.88.48 1.152-.416.448-.64.912-.64 1.392 0 1.216 1.28 2 3.232 2zm.32-6.576c-.608 0-1.008-.672-1.008-1.744s.4-1.744 1.008-1.744c.624 0 1.04.656 1.04 1.744s-.416 1.744-1.04 1.744zm-.192 5.936c-1.152 0-1.792-.624-1.792-1.712 0-.192.032-.384.08-.56.144.016.304.032.48.032h2.64c.736 0 1.024.208 1.024.704 0 .8-1.168 1.536-2.432 1.536zm14.104-3.008v-.512h-.48c-.208 0-.304-.096-.304-.288v-2.272c0-1.648.528-2.672 1.424-2.672.64 0 .928.416.928 1.312v3.632c0 .192-.08.288-.288.288h-.48v.512h3.936v-.512h-.592c-.208 0-.304-.096-.304-.288v-3.984c0-1.472-.736-2.32-2.08-2.32-1.216 0-2.064.576-2.464 1.696h-.08v-5.056c-.384.048-1.328.096-2.032.096H389v.512h.672c.128 0 .224.096.224.224v8.832c0 .192-.096.288-.304.288H389v.512h3.952zm-6.352.192c1.024 0 1.664-.528 1.664-1.376a3.92 3.92 0 0 0-.064-.608l-.528.08c.016.128.032.24.032.368 0 .32-.16.576-.384.576s-.352-.208-.352-.576v-5.056h1.472v-.512h-1.472v-1.664h-1.104c-.096 1.056-.688 1.664-1.584 1.664h-.48v.512h.688c.112 0 .224.096.224.224v4.176c0 1.424.672 2.192 1.888 2.192z" fill="#156452" fill-rule="nonzero"/><path stroke="#156452" stroke-linecap="square" d="M143.9 311.24l98 16"/></g></svg>